<svg width="12" height="12" viewBox="0 0 12 12" fill="none" xmlns="http://www.w3.org/2000/svg">
<rect width="12" height="12" rx="2" fill="#F06A6A"/>
<g clip-path="url(#clip0_210_219)">
<path d="M8.26527 6.19707C7.80519 6.19707 7.36396 6.37984 7.03863 6.70516C6.71331 7.03049 6.53054 7.47172 6.53054 7.9318C6.53054 8.39188 6.71331 8.83311 7.03863 9.15844C7.36396 9.48376 7.80519 9.66653 8.26527 9.66653C8.72535 9.66653 9.16658 9.48376 9.49191 9.15844C9.81723 8.83311 10 8.39188 10 7.9318C10 7.47172 9.81723 7.03049 9.49191 6.70516C9.16658 6.37984 8.72535 6.19707 8.26527 6.19707ZM3.75871 6.19741C3.52892 6.19421 3.30077 6.23671 3.08754 6.32243C2.87431 6.40816 2.68024 6.5354 2.51661 6.69677C2.35298 6.85814 2.22304 7.05042 2.13436 7.26244C2.04567 7.47445 2 7.70198 2 7.9318C2 8.16162 2.04567 8.38914 2.13436 8.60116C2.22304 8.81318 2.35298 9.00546 2.51661 9.16683C2.68024 9.3282 2.87431 9.45544 3.08754 9.54117C3.30077 9.62689 3.52892 9.66939 3.75871 9.66619C4.21452 9.65984 4.64951 9.47432 4.96959 9.14975C5.28967 8.82518 5.46912 8.38765 5.46912 7.9318C5.46912 7.47595 5.28967 7.03842 4.96959 6.71385C4.64951 6.38928 4.21452 6.20375 3.75871 6.19741ZM7.74638 4.02904C7.74638 4.48907 7.56364 4.93027 7.23834 5.25556C6.91305 5.58085 6.47186 5.7636 6.01182 5.7636C5.55179 5.7636 5.1106 5.58085 4.7853 5.25556C4.46001 4.93027 4.27726 4.48907 4.27726 4.02904C4.27726 3.56901 4.46001 3.12781 4.7853 2.80252C5.1106 2.47723 5.55179 2.29448 6.01182 2.29448C6.47186 2.29448 6.91305 2.47723 7.23834 2.80252C7.56364 3.12781 7.74638 3.56901 7.74638 4.02904Z" fill="white"/>
</g>
<defs>
<clipPath id="clip0_210_219">
<rect width="8" height="8" fill="white" transform="translate(2 2)"/>
</clipPath>
</defs>
</svg>
