<svg fill="none" height="12" viewBox="0 0 12 12" width="12" xmlns="http://www.w3.org/2000/svg"><rect fill="#f06a6a" height="12" rx="2.5" width="12"/><path d="m8.26527 6.19707c-.46008 0-.90131.18276-1.22664.50809-.32532.32532-.50809.76656-.50809 1.22664 0 .46007.18277.90131.50809 1.22663.32533.32533.76656.50809 1.22664.50809s.90131-.18276 1.22664-.50809c.32532-.32532.50809-.76656.50809-1.22663 0-.46008-.18277-.90132-.50809-1.22664-.32533-.32533-.76656-.50809-1.22664-.50809zm-4.50656.00033c-.22979-.0032-.45794.0393-.67117.12503-.21323.08572-.4073.21297-.57093.37434s-.29357.35365-.38225.56566c-.08869.21202-.13436.43955-.13436.66937 0 .22981.04567.45734.13436.66936.08868.21201.21862.40429.38225.56566s.3577.28862.57093.37434c.21323.08573.44138.12823.67117.12503.45581-.00635.8908-.19187 1.21088-.51644.32008-.32458.49953-.7621.49953-1.21795 0-.45586-.17945-.89338-.49953-1.21795-.32008-.32458-.75507-.5101-1.21088-.51645zm3.98767-2.16836c0 .46003-.18274.90122-.50804 1.22651-.32529.3253-.76648.50805-1.22652.50805-.46003 0-.90122-.18275-1.22652-.50805-.32529-.32529-.50804-.76648-.50804-1.22651 0-.46004.18275-.90123.50804-1.22652.3253-.3253.76649-.50804 1.22652-.50804.46004 0 .90123.18274 1.22652.50804.3253.32529.50804.76648.50804 1.22652z" fill="#fff"/></svg>