<svg fill="none" height="12" viewBox="0 0 12 12" width="12" xmlns="http://www.w3.org/2000/svg"><rect fill="#759c3e" height="12" rx="2.5" width="12"/><g fill="#3c4929"><path d="m4.25301 4.70612-.34285.11194.3551.04112z"/><path d="m4.23596 5.37642 1.764.11279 1.764-.11279-1.764-.34377z"/><path d="m7.73871 4.85918.35102-.04112-.35102-.09357z"/></g><path d="m6.47974 7.76211.92418.21871-.92663.27944z" fill="#b7ca9d"/><path d="m4.23595 3.50565v-.62371l1.764-.88194.00787.00661-.00405.79177-.00382.00167-.00661.01824-.96487.38948-.00884 1.37203.5135-.08636.46682-.09341v5.60047l-.52847-.26412v-.74729l-.46292-.18511v-3.50489l-.77261.07733v-.62359l-.32579.06523v-1.18217z" fill="#d5d5d5"/><path d="m5.53313 4.4935-.52459.10488v-1.40197l.52459.16356z" fill="#fff"/><path d="m6.91306 2.45647.85071.42547v.62371l.32603.13024v1.18207l-.32603-.06513v.62359l-.41536-.04143-.35724-.0359v.70104h.77283v.64137l-.35913.03223v.64671l-.87661.17424v.74726l.87461-.25957.002.65926-.87661.34746v.74729l-.52826.26412v-5.60047l.46648.09323.49932.06592v-1.35157l-.95246-.36732-.01334-.04024v-.80005z" fill="#fff"/><path d="m6.5282 3.01128-.52826-.21112-.9914.39625.52459.16356z" fill="#3c4929"/><path d="m5.00854 3.19641.9914-.39625.20857.08333.31969.12779.46291.18536-.02474.02516-.47144.14679-.02841-.00862-.46658-.16356-.46681.16356z" fill="#3c4929"/><path d="m6.46655 3.35997.52459-.16333v1.40186l-.52459-.10524z" fill="#4b612c"/></svg>