<svg width="12" height="12" viewBox="0 0 12 12" fill="none" xmlns="http://www.w3.org/2000/svg">
<rect width="12" height="12" rx="2" fill="#759C3E"/>
<g clip-path="url(#clip0_210_172)">
<path d="M4.25301 4.70612L3.91016 4.81805L4.26526 4.85918L4.25301 4.70612Z" fill="#3C4929"/>
<path d="M4.23584 5.37643L5.99984 5.48921L7.76384 5.37643L5.99984 5.03265L4.23584 5.37643Z" fill="#3C4929"/>
<path d="M7.73877 4.85918L8.08979 4.81805L7.73877 4.72449V4.85918Z" fill="#3C4929"/>
<path d="M6.47974 7.7621L7.40392 7.98081L6.47729 8.26026L6.47974 7.7621Z" fill="#B7CA9D"/>
<path d="M4.23595 3.50565V2.88194L5.99995 2L6.00782 2.00661L6.00377 2.79838L5.99995 2.80005L5.99334 2.81829L5.02847 3.20777L5.01963 4.5798L5.53313 4.49344L5.99995 4.40003V10.0005L5.47148 9.73638V8.98909L5.00856 8.80398V5.29909L4.23595 5.37642V4.75283L3.91016 4.81806V3.63589L4.23595 3.50565Z" fill="#D5D5D5"/>
<path d="M5.53313 4.49351L5.00854 4.59839V3.19641L5.53313 3.35997V4.49351Z" fill="white"/>
<path d="M6.91306 2.45647L7.76377 2.88194V3.50565L8.0898 3.63589V4.81796L7.76377 4.75283V5.37642L7.34841 5.33499L6.99117 5.29909V6.00013H7.764V6.6415L7.40487 6.67373V7.32044L6.52826 7.49468V8.24194L7.40287 7.98237L7.40487 8.64163L6.52826 8.98909V9.73638L6 10.0005V4.40003L6.46648 4.49326L6.9658 4.55918V3.20761L6.01334 2.84029L6 2.80005V2L6.91306 2.45647Z" fill="white"/>
<path d="M6.5282 3.01129L5.99994 2.80017L5.00854 3.19642L5.53313 3.35997L6.5282 3.01129Z" fill="#3C4929"/>
<path d="M5.00854 3.19642L5.99994 2.80017L6.20851 2.8835L6.5282 3.01129L6.99111 3.19664L6.96637 3.2218L6.49493 3.3686L6.46652 3.35997L5.99994 3.19642L5.53313 3.35997L5.00854 3.19642Z" fill="#3C4929"/>
<path d="M6.46655 3.35997L6.99114 3.19664V4.5985L6.46655 4.49326V3.35997Z" fill="#4B612C"/>
</g>
<defs>
<clipPath id="clip0_210_172">
<rect width="4.17959" height="8" fill="white" transform="translate(3.91016 2)"/>
</clipPath>
</defs>
</svg>
