<svg fill="none" height="12" viewBox="0 0 12 12" width="12" xmlns="http://www.w3.org/2000/svg" xmlns:xlink="http://www.w3.org/1999/xlink"><linearGradient id="a" gradientUnits="userSpaceOnUse" x1="6" x2="6" y1="0" y2="12"><stop offset="0" stop-color="#007acc"/><stop offset="1" stop-color="#007acc"/></linearGradient><rect fill="url(#a)" height="12" rx="2.5" width="12"/><path d="m9.71689 2.86369-1.64836-.79365c-.1908-.09187-.41881-.05312-.56855.09662l-5.39611 4.91999c-.14515.13233-.14498.36084.00036.49296l.44077.4007c.11881.10802.29776.11597.42568.01893l6.49817-4.92965c.21801-.16539.53113-.0099.53113.26374v-.01913c0-.19208-.11003-.36718-.28309-.45051z" fill="#a4a4a4"/><path d="m8.06862 9.93011c-.19085.09179-.41887.05298-.56862-.09677.18451.18446.5.05383.5-.20711v-7.25245c0-.26094-.31549-.39162-.5-.20711.14975-.14975.37777-.18855.56862-.09677l1.64808.79257c.17317.08328.2833.25844.2833.4506v5.37391c0 .19216-.11013.36732-.28331.4506z" fill="#fff"/><path d="m9.71689 9.13633-1.64836.79365c-.1908.09192-.41881.05311-.56855-.09662l-5.39611-4.91999c-.14515-.13233-.14498-.36084.00036-.49296l.44077-.40071c.11881-.10801.29776-.11597.42568-.01892l6.49817 4.92965c.21801.16538.53113.0099.53113-.26374v.01914c0 .19207-.11003.36717-.28309.4505z" fill="#cecece"/></svg>