<svg fill="none" height="12" viewBox="0 0 12 12" width="12" xmlns="http://www.w3.org/2000/svg"><rect fill="#5865f2" height="12" rx="2.5" width="12"/><path d="m8.77676 3.47359c-.52561-.24064-1.08049-.41135-1.65046-.50778-.07799.13942-.14857.28288-.21142.42976-.60713-.09149-1.22454-.09149-1.83168 0-.06288-.14687-.13345-.29032-.21142-.42976-.57034.09724-1.12558.26836-1.65172.50904-1.04451 1.54538-1.32766 3.05238-1.18609 4.53798.6117.45195 1.29636.79566 2.02422 1.0162.1639-.22043.30892-.45428.43354-.69907-.23669-.0884-.46515-.19747-.68271-.32594.05726-.04153.11326-.08432.16737-.12584.63307.29771 1.32402.45207 2.0236.45207.69957 0 1.39052-.15436 2.02359-.45207.05474.04467.11074.08746.16737.12584-.21798.12868-.44685.23795-.68397.32657.12447.24467.2695.47833.43354.69844.72849-.21965 1.41367-.5632 2.02548-1.01557.1661-1.72282-.28378-3.21598-1.18924-4.53987zm-4.1057 3.6256c-.39452 0-.72046-.35803-.72046-.79848 0-.44046.31461-.80164.7192-.80164s.72802.36118.72109.80164c-.00692.44045-.31775.79848-.71983.79848zm2.65785 0c-.39515 0-.71983-.35803-.71983-.79848 0-.44046.31461-.80164.71983-.80164s.72613.36118.71921.80164c-.00692.44045-.31713.79848-.71921.79848z" fill="#fff"/></svg>