<svg width="12" height="12" viewBox="0 0 12 12" fill="none" xmlns="http://www.w3.org/2000/svg">
<rect width="12" height="12" rx="2" fill="#5865F2"/>
<path d="M8.77676 3.47359C8.25115 3.23295 7.69627 3.06224 7.1263 2.96581C7.04831 3.10523 6.97773 3.24869 6.91488 3.39557C6.30775 3.30408 5.69034 3.30408 5.0832 3.39557C5.02032 3.2487 4.94975 3.10525 4.87178 2.96581C4.30144 3.06305 3.7462 3.23417 3.22006 3.47485C2.17555 5.02023 1.8924 6.52723 2.03397 8.01283C2.64567 8.46478 3.33033 8.80849 4.05819 9.02903C4.22209 8.8086 4.36711 8.57475 4.49173 8.32996C4.25504 8.24156 4.02658 8.13249 3.80902 8.00402C3.86628 7.96249 3.92228 7.9197 3.97639 7.87818C4.60946 8.17589 5.30041 8.33025 5.99999 8.33025C6.69956 8.33025 7.39051 8.17589 8.02358 7.87818C8.07832 7.92285 8.13432 7.96564 8.19095 8.00402C7.97297 8.1327 7.7441 8.24197 7.50698 8.33059C7.63145 8.57526 7.77648 8.80892 7.94052 9.02903C8.66901 8.80938 9.35419 8.46582 9.966 8.01346C10.1321 6.29064 9.68222 4.79748 8.77676 3.47359ZM4.67106 7.09919C4.27653 7.09919 3.9506 6.74116 3.9506 6.3007C3.9506 5.86025 4.26521 5.49907 4.6698 5.49907C5.07439 5.49907 5.39782 5.86025 5.39089 6.3007C5.38397 6.74116 5.07314 7.09919 4.67106 7.09919ZM7.32891 7.09919C6.93376 7.09919 6.60908 6.74116 6.60908 6.3007C6.60908 5.86025 6.92369 5.49907 7.32891 5.49907C7.73413 5.49907 8.05504 5.86025 8.04812 6.3007C8.0412 6.74116 7.73099 7.09919 7.32891 7.09919Z" fill="white"/>
</svg>
