<svg fill="none" height="12" viewBox="0 0 12 12" width="12" xmlns="http://www.w3.org/2000/svg"><rect fill="#0c8ce9" height="12" rx="2.5" width="12"/><path clip-rule="evenodd" d="m2.0078 2.67484c-.01507-.09099-.00823-.18427.01996-.27209s.07691-.16765.14213-.23287c.06522-.06521.14505-.11394.23287-.14213s.1811-.03503.27209-.01996l1.74012.29003c.11929.01979.22941.07637.31496.16183l5.01504 5.01503c.08085.0808.14499.17674.18875.28234s.06628.21878.06628.33309c0 .1143-.02252.22749-.06628.33308-.04376.1056-.1079.20154-.18875.28234l-1.03944 1.04001c-.0808.08085-.17674.14499-.28233.18875-.1056.04376-.21878.06631-.33309.06631-.1143 0-.22749-.02255-.33309-.06631-.10559-.04376-.20153-.1079-.28233-.18875l-5.01504-5.01561c-.08566-.08548-.14245-.19561-.16241-.31497zm.57192-.09512.10093.60498.18909 1.13514.51972.51972 1.4501-1.45011-.51972-.51971-1.13514-.1891zm2.67051 1.2204-1.4501 1.4501 4.08465 4.08523c.05438.05437.12814.08492.20504.08492s.15066-.03055.20505-.08492l1.04001-1.04001c.05437-.05439.08491-.12814.08491-.20505 0-.0769-.03054-.15065-.08491-.20504l-4.08523-4.08523z" fill="#fff" fill-rule="evenodd"/></svg>