<svg width="12" height="12" viewBox="0 0 12 12" fill="none" xmlns="http://www.w3.org/2000/svg">
<g clip-path="url(#clip0_662_5223)">
<path d="M9.5 0H2.5C1.11929 0 0 1.11929 0 2.5V9.5C0 10.8807 1.11929 12 2.5 12H9.5C10.8807 12 12 10.8807 12 9.5V2.5C12 1.11929 10.8807 0 9.5 0Z" fill="#F65009"/>
<path fill-rule="evenodd" clip-rule="evenodd" d="M3.09436 2.62637H8.9054C9.09805 2.62637 9.2828 2.7029 9.41903 2.83913C9.55525 2.97535 9.63178 3.16011 9.63178 3.35275V6.98465C9.63178 7.1773 9.55525 7.36206 9.41903 7.49828C9.2828 7.6345 9.09805 7.71103 8.9054 7.71103H3.09436C2.90171 7.71103 2.71696 7.6345 2.58073 7.49828C2.44451 7.36206 2.36798 7.1773 2.36798 6.98465V3.35275C2.36798 3.16011 2.44451 2.97535 2.58073 2.83913C2.71696 2.7029 2.90171 2.62637 3.09436 2.62637ZM3.40961 8.43741H3.09436C2.70907 8.43741 2.33955 8.28435 2.0671 8.01191C1.79466 7.73946 1.6416 7.36995 1.6416 6.98465V3.35275C1.6416 2.96746 1.79466 2.59794 2.0671 2.3255C2.33955 2.05305 2.70907 1.89999 3.09436 1.89999H8.9054C9.29069 1.89999 9.66021 2.05305 9.93265 2.3255C10.2051 2.59794 10.3582 2.96746 10.3582 3.35275V6.98465C10.3582 7.36995 10.2051 7.73946 9.93265 8.01191C9.66021 8.28435 9.29069 8.43741 8.9054 8.43741H8.59015L8.88942 9.42093C8.90491 9.46695 8.91102 9.51561 8.90738 9.56403C8.90374 9.61246 8.89042 9.65966 8.86822 9.70285C8.84602 9.74603 8.81539 9.78433 8.77813 9.81547C8.74087 9.84661 8.69774 9.86997 8.6513 9.88415C8.60486 9.89834 8.55605 9.90307 8.50775 9.89806C8.45945 9.89305 8.41264 9.8784 8.3701 9.85499C8.32756 9.83158 8.29014 9.79987 8.26006 9.76175C8.22999 9.72362 8.20786 9.67986 8.195 9.63303L7.83036 8.43741H4.16868L3.80549 9.63303C3.77736 9.72521 3.71377 9.80245 3.6287 9.84774C3.54362 9.89303 3.44404 9.90268 3.35186 9.87455C3.25968 9.84643 3.18245 9.78283 3.13715 9.69776C3.09186 9.61269 3.08221 9.51311 3.11034 9.42093L3.40961 8.43741ZM3.82074 3.35275C3.62809 3.35275 3.44334 3.42928 3.30711 3.5655C3.17089 3.70173 3.09436 3.88648 3.09436 4.07913C3.09436 4.27178 3.17089 4.45654 3.30711 4.59276C3.44334 4.72898 3.62809 4.80551 3.82074 4.80551C4.01339 4.80551 4.19815 4.72898 4.33437 4.59276C4.47059 4.45654 4.54712 4.27178 4.54712 4.07913C4.54712 3.88648 4.47059 3.70173 4.33437 3.5655C4.19815 3.42928 4.01339 3.35275 3.82074 3.35275ZM3.82074 5.53189C3.62809 5.53189 3.44334 5.60842 3.30711 5.74464C3.17089 5.88087 3.09436 6.06562 3.09436 6.25827C3.09436 6.45092 3.17089 6.63568 3.30711 6.7719C3.44334 6.90812 3.62809 6.98465 3.82074 6.98465C4.01339 6.98465 4.19815 6.90812 4.33437 6.7719C4.47059 6.63568 4.54712 6.45092 4.54712 6.25827C4.54712 6.06562 4.47059 5.88087 4.33437 5.74464C4.19815 5.60842 4.01339 5.53189 3.82074 5.53189Z" fill="white"/>
</g>
<defs>
<clipPath id="clip0_662_5223">
<rect width="12" height="12" fill="white"/>
</clipPath>
</defs>
</svg>
