<svg width="12" height="12" viewBox="0 0 12 12" fill="none" xmlns="http://www.w3.org/2000/svg">
<g clip-path="url(#clip0_662_5214)">
<path d="M9.5 0H2.5C1.11929 0 0 1.11929 0 2.5V9.5C0 10.8807 1.11929 12 2.5 12H9.5C10.8807 12 12 10.8807 12 9.5V2.5C12 1.11929 10.8807 0 9.5 0Z" fill="#8A38F5"/>
<path d="M9.2 2C9.41217 2 9.61566 2.08429 9.76569 2.23431C9.91571 2.38434 10 2.58783 10 2.8V6.4688L9.996 6.548C9.97768 6.73188 9.89627 6.90374 9.7656 7.0344L7.0344 9.7656L6.976 9.8184C6.83301 9.93575 6.65378 9.99992 6.4688 10H2.8C2.58783 10 2.38434 9.91571 2.23431 9.76569C2.08429 9.61566 2 9.41217 2 9.2V2.8C2 2.58783 2.08429 2.38434 2.23431 2.23431C2.38434 2.08429 2.58783 2 2.8 2H9.2ZM2.8 9.2H6V6.8C6 6.58783 6.08429 6.38434 6.23431 6.23431C6.38434 6.08429 6.58783 6 6.8 6H9.2V2.8H2.8V9.2ZM6.8 8.8688L8.8688 6.8H6.8V8.8688Z" fill="white"/>
</g>
<defs>
<clipPath id="clip0_662_5214">
<rect width="12" height="12" fill="white"/>
</clipPath>
</defs>
</svg>
