<svg width="12" height="12" viewBox="0 0 12 12" fill="none" xmlns="http://www.w3.org/2000/svg">
<g clip-path="url(#clip0_662_5211)">
<path d="M9.5 0H2.5C1.11929 0 0 1.11929 0 2.5V9.5C0 10.8807 1.11929 12 2.5 12H9.5C10.8807 12 12 10.8807 12 9.5V2.5C12 1.11929 10.8807 0 9.5 0Z" fill="#0C8CE9"/>
<path fill-rule="evenodd" clip-rule="evenodd" d="M2.92585 2.13829C3.08385 2.01696 3.28985 1.97163 3.48584 2.01763L6.85844 2.81095C7.5886 2.98336 8.23652 3.40333 8.69203 3.99946C9.14754 4.59559 9.38253 5.33108 9.35706 6.08088L9.80505 6.52888C9.93003 6.65389 10.0002 6.82343 10.0002 7.0002C10.0002 7.17697 9.93003 7.34651 9.80505 7.47152L7.47177 9.80481C7.34675 9.92979 7.17721 10 7.00044 10C6.82367 10 6.65413 9.92979 6.52912 9.80481L6.08046 9.35615C5.33085 9.3815 4.5956 9.14653 3.99962 8.69116C3.40364 8.23579 2.98371 7.58812 2.81119 6.8582L2.01787 3.48693C1.99173 3.37633 1.9943 3.26088 2.02534 3.15156C2.05638 3.04223 2.11485 2.94265 2.1952 2.86228L2.86185 2.19563L2.92585 2.13829ZM3.23518 2.76428L5.32314 4.85224C5.60269 4.68741 5.93275 4.6302 6.25147 4.69132C6.57018 4.75244 6.85566 4.92771 7.0544 5.18426C7.25313 5.44082 7.35147 5.76105 7.33099 6.08492C7.31051 6.4088 7.1726 6.71408 6.94313 6.94356C6.71366 7.17303 6.40837 7.31093 6.0845 7.33141C5.76062 7.3519 5.44039 7.25356 5.18384 7.05482C4.92728 6.85609 4.75202 6.57061 4.6909 6.25189C4.62977 5.93318 4.68699 5.60311 4.85182 5.32357L2.76386 3.23561L2.66652 3.3336L3.45984 6.70554C3.60753 7.33206 3.98427 7.88067 4.51597 8.24349C5.04767 8.60631 5.69588 8.75708 6.33312 8.66617L6.99977 9.33349L9.33306 7.0002L8.66641 6.33355C8.75685 5.69637 8.60589 5.04839 8.24314 4.51679C7.8804 3.9852 7.33207 3.60837 6.70578 3.46027L3.33318 2.66695L3.23518 2.76428ZM5.99979 5.3329C5.82299 5.3329 5.65342 5.40313 5.5284 5.52816C5.40338 5.65318 5.33314 5.82274 5.33314 5.99955C5.33314 6.17636 5.40338 6.34593 5.5284 6.47095C5.65342 6.59597 5.82299 6.66621 5.99979 6.66621C6.1766 6.66621 6.34617 6.59597 6.47119 6.47095C6.59621 6.34593 6.66645 6.17636 6.66645 5.99955C6.66645 5.82274 6.59621 5.65318 6.47119 5.52816C6.34617 5.40313 6.1766 5.3329 5.99979 5.3329Z" fill="white"/>
</g>
<defs>
<clipPath id="clip0_662_5211">
<rect width="12" height="12" fill="white"/>
</clipPath>
</defs>
</svg>
