<svg fill="none" height="12" viewBox="0 0 12 12" width="12" xmlns="http://www.w3.org/2000/svg"><rect fill="#f65009" height="12" rx="2.5" width="12"/><path clip-rule="evenodd" d="m3.14286 2.85143h5.71428c.15156 0 .2969.06021.40406.16737.10717.10716.16737.25251.16737.40406v3.42857c0 .15156-.0602.2969-.16737.40406-.10716.10717-.2525.16737-.40406.16737h-5.71428c-.15156 0-.2969-.0602-.40406-.16737-.10717-.10716-.16737-.2525-.16737-.40406v-3.42857c0-.15155.0602-.2969.16737-.40406.10716-.10716.2525-.16737.40406-.16737zm.96 5.14286h-.96c-.30311 0-.5938-.12041-.80812-.33473-.21433-.21433-.33474-.50502-.33474-.80813v-3.42857c0-.3031.12041-.59379.33474-.80812.21432-.21433.50501-.33474.80812-.33474h5.71428c.30311 0 .5938.12041.80813.33474.21432.21433.33473.50502.33473.80812v3.42857c0 .30311-.12041.5938-.33473.80813-.21433.21432-.50502.33473-.80813.33473h-.96l.37829 1.35143c.02046.07297.01109.15108-.02604.21715s-.09899.11468-.17196.13514-.15108.01109-.21715-.02604c-.06607-.03714-.11468-.09899-.13514-.17196l-.42228-1.50572h-2.60629l-.42171 1.50572c-.02281.07014-.07186.12875-.1369.16356-.06503.03481-.14101.04312-.21202.02318-.07102-.01993-.13158-.06656-.16901-.13012-.03742-.06356-.04881-.13914-.03179-.21091zm-.10286-4.28571c-.15155 0-.2969.0602-.40406.16736-.10716.10717-.16737.25251-.16737.40406 0 .15156.06021.2969.16737.40407.10716.10716.25251.16736.40406.16736s.2969-.0602.40406-.16736c.10716-.10717.16737-.25251.16737-.40407 0-.15155-.06021-.29689-.16737-.40406-.10716-.10716-.25251-.16736-.40406-.16736zm0 1.71428c-.15155 0-.2969.06021-.40406.16737s-.16737.25251-.16737.40406.06021.2969.16737.40406c.10716.10717.25251.16737.40406.16737s.2969-.0602.40406-.16737c.10716-.10716.16737-.25251.16737-.40406s-.06021-.2969-.16737-.40406-.25251-.16737-.40406-.16737z" fill="#fff" fill-rule="evenodd"/></svg>