<svg width="12" height="12" viewBox="0 0 12 12" fill="none" xmlns="http://www.w3.org/2000/svg">
<g clip-path="url(#clip0_662_5208)">
<path d="M9.5 0H2.5C1.11929 0 0 1.11929 0 2.5V9.5C0 10.8807 1.11929 12 2.5 12H9.5C10.8807 12 12 10.8807 12 9.5V2.5C12 1.11929 10.8807 0 9.5 0Z" fill="#FF25BE"/>
<path d="M3.95838 4.23092C4.02863 4.12365 4.12028 4.03206 4.2276 3.96188C4.33492 3.89171 4.45558 3.84448 4.58202 3.82314C4.70845 3.80181 4.83793 3.80683 4.96233 3.83791C5.08673 3.86898 5.20337 3.92543 5.30492 4.00371L5.39284 4.08172L7.91876 6.60702L7.99553 6.69494C8.07401 6.79633 8.13064 6.91288 8.16186 7.03724C8.19307 7.16159 8.1982 7.29107 8.17691 7.41751C8.15563 7.54395 8.10839 7.66461 8.03817 7.77189C7.96796 7.87917 7.87629 7.97075 7.76894 8.04086L7.66679 8.09905L3.93857 9.90682C3.77623 9.9856 3.59445 10.0154 3.41545 9.99251C3.23646 9.96964 3.068 9.89512 2.93068 9.77805L2.8762 9.7279L2.27134 9.12304C2.13513 8.98657 2.04479 8.81108 2.01284 8.62093C1.98089 8.43078 2.00892 8.2354 2.09304 8.06191L3.90081 4.33307L3.95838 4.23092ZM2.65023 8.33183C2.62223 8.38964 2.61292 8.45473 2.62357 8.51807C2.63421 8.58141 2.6643 8.63986 2.70966 8.68534L3.3139 9.2902C3.35355 9.32988 3.40324 9.35804 3.45765 9.37167C3.51206 9.3853 3.56916 9.38389 3.62283 9.36759L3.66803 9.34901L4.51991 8.93546L3.06317 7.4781L2.65023 8.33183ZM3.34919 6.88933L5.10929 8.64943L6.18838 8.12691L3.87171 5.81086L3.34919 6.88933ZM4.95513 4.51942C4.92012 4.48483 4.87738 4.45904 4.83045 4.44419C4.78351 4.42935 4.73373 4.42586 4.68518 4.43402C4.63664 4.44218 4.59073 4.46176 4.55123 4.49114C4.51173 4.52051 4.47978 4.55885 4.458 4.603L4.15773 5.22148L6.77776 7.84089L7.39686 7.54186C7.43824 7.5217 7.47461 7.49256 7.50331 7.45656C7.532 7.42056 7.55231 7.37862 7.56275 7.33378C7.57319 7.28894 7.5735 7.24234 7.56365 7.19737C7.5538 7.1524 7.53404 7.1102 7.50582 7.07383L7.47982 7.04473L4.95513 4.51942ZM9.66957 5.34716C9.74362 5.33958 9.81779 5.36025 9.87725 5.40501C9.93671 5.44978 9.97708 5.51535 9.99027 5.58861L9.99646 5.63132C10.0018 5.67109 9.99893 5.71154 9.98803 5.75015C9.97713 5.78877 9.95842 5.82474 9.93306 5.85584C9.90771 5.88694 9.87624 5.91251 9.84061 5.93097C9.80498 5.94943 9.76594 5.96039 9.72591 5.96316L8.82265 6.04179C8.74323 6.04482 8.6657 6.01719 8.6061 5.96463C8.54649 5.91206 8.50939 5.83859 8.50247 5.75943C8.49555 5.68026 8.51934 5.60146 8.56891 5.53935C8.61849 5.47724 8.69005 5.43658 8.76878 5.42578L9.66957 5.34716ZM8.99476 3.90404C9.0602 3.86487 9.1383 3.85267 9.21257 3.86999C9.28684 3.88732 9.35148 3.93282 9.39284 3.9969C9.40109 4.00928 9.40873 4.02167 9.41574 4.03405C9.43558 4.06786 9.44845 4.1053 9.45358 4.14416C9.4587 4.18303 9.456 4.22252 9.44561 4.26032C9.43522 4.29812 9.41737 4.33346 9.3931 4.36424C9.36883 4.39502 9.33864 4.42063 9.30431 4.43956L8.09087 5.141C8.01977 5.18213 7.93525 5.19333 7.85589 5.17214C7.77654 5.15095 7.70885 5.09911 7.66772 5.02801C7.62659 4.95691 7.61538 4.87239 7.63657 4.79303C7.65776 4.71368 7.70961 4.64599 7.7807 4.60486L8.99476 3.90404ZM7.5603 2.69494C7.57922 2.66052 7.60486 2.63026 7.63569 2.60593C7.66653 2.58161 7.70193 2.56372 7.7398 2.55333C7.77767 2.54294 7.81725 2.54025 7.85617 2.54543C7.8951 2.55062 7.9326 2.56356 7.96643 2.5835L8.00358 2.6064C8.06776 2.64798 8.11327 2.71289 8.13048 2.7874C8.1477 2.86192 8.13527 2.9402 8.09582 3.00572L7.395 4.21916C7.35217 4.28654 7.28496 4.33476 7.20741 4.35375C7.12987 4.37275 7.04798 4.36105 6.97886 4.32109C6.90973 4.28114 6.85872 4.21602 6.83648 4.13934C6.81423 4.06266 6.82247 3.98035 6.85948 3.90961L7.5603 2.69494ZM6.36854 2.00216L6.41187 2.00897C6.56417 2.03374 6.66632 2.17551 6.65332 2.32967L6.5747 3.23046C6.56755 3.31231 6.52819 3.38797 6.46526 3.4408C6.40233 3.49362 6.321 3.51929 6.23914 3.51215C6.15729 3.505 6.08163 3.46564 6.0288 3.40271C5.97598 3.33978 5.95031 3.25845 5.95745 3.17659L6.03608 2.27333C6.03876 2.2332 6.04967 2.19406 6.06814 2.15834C6.08661 2.12262 6.11224 2.09109 6.14343 2.0657C6.17462 2.04032 6.2107 2.02164 6.24943 2.01081C6.28816 1.99998 6.32871 1.99663 6.36854 2.00216Z" fill="white"/>
</g>
<defs>
<clipPath id="clip0_662_5208">
<rect width="12" height="12" fill="white"/>
</clipPath>
</defs>
</svg>
