<svg width="12" height="12" viewBox="0 0 12 12" fill="none" xmlns="http://www.w3.org/2000/svg">
<g clip-path="url(#clip0_662_5217)">
<path d="M9.5 0H2.5C1.11929 0 0 1.11929 0 2.5V9.5C0 10.8807 1.11929 12 2.5 12H9.5C10.8807 12 12 10.8807 12 9.5V2.5C12 1.11929 10.8807 0 9.5 0Z" fill="black"/>
<path d="M6.998 6C7.18267 6 7.334 6.15067 7.33 6.336C7.308 7.238 7.19867 8.05733 7.02867 8.68067C6.934 9.02733 6.81533 9.33333 6.66933 9.55933C6.53333 9.77067 6.31467 9.99933 6 10C5.686 10 5.46667 9.77067 5.33133 9.55933C5.18467 9.33267 5.06667 9.02733 4.97133 8.68C4.94467 8.57956 4.91911 8.474 4.89467 8.36333C4.88476 8.31474 4.88624 8.26451 4.89899 8.21658C4.91174 8.16865 4.9354 8.12432 4.96814 8.08706C5.00088 8.04981 5.04179 8.02063 5.08769 8.00183C5.13358 7.98302 5.1832 7.9751 5.23267 7.97867C5.386 7.98667 5.51733 8.09867 5.55133 8.248C5.57133 8.33822 5.59244 8.424 5.61467 8.50533C5.70133 8.82133 5.79733 9.05333 5.89067 9.198C5.946 9.28333 6.05467 9.28333 6.11 9.198C6.20333 9.05267 6.29933 8.82133 6.386 8.50467C6.53533 7.956 6.63867 7.20933 6.662 6.36667V6.33067C6.66323 6.24231 6.69928 6.15801 6.76233 6.09609C6.82537 6.03417 6.9103 5.99964 6.99867 6M3.636 4.89467C3.68463 4.88479 3.73488 4.88628 3.78283 4.89902C3.83079 4.91177 3.87515 4.93543 3.91245 4.96815C3.94975 5.00087 3.97899 5.04177 3.99788 5.08765C4.01677 5.13354 4.02479 5.18317 4.02133 5.23267C4.01709 5.30791 3.98843 5.37973 3.93971 5.43723C3.89099 5.49473 3.82486 5.53479 3.75133 5.55133C3.66554 5.57079 3.58019 5.59213 3.49533 5.61533C3.17933 5.702 2.94733 5.798 2.802 5.89133C2.71733 5.94667 2.71733 6.05533 2.802 6.11C2.94733 6.20333 3.17933 6.3 3.49533 6.386C4.044 6.536 4.79133 6.63933 5.634 6.662H5.67133C5.7561 6.66836 5.83526 6.7068 5.89267 6.76949C5.95009 6.83218 5.98144 6.91441 5.98033 6.99941C5.97923 7.08441 5.94575 7.16579 5.88673 7.22697C5.8277 7.28815 5.74757 7.32452 5.66267 7.32867H5.61667C4.734 7.30467 3.932 7.196 3.32 7.02933C2.97333 6.93467 2.66667 6.816 2.44133 6.66933C2.23 6.53467 2 6.316 2 6.00133C2 5.68667 2.23 5.468 2.44133 5.332C2.66733 5.186 2.97267 5.06733 3.32 4.97267C3.42044 4.94511 3.52578 4.91867 3.636 4.89467ZM6.384 4.67333C7.26667 4.69733 8.06867 4.806 8.68067 4.97267C9.02733 5.06733 9.334 5.186 9.55933 5.33267C9.77067 5.468 10.0007 5.68667 10.0007 6.00133L9.998 6.05933C9.97133 6.34267 9.758 6.54267 9.55933 6.67067C9.33333 6.81667 9.028 6.93533 8.68067 7.03C8.58022 7.05756 8.47467 7.08289 8.364 7.106C8.31537 7.11588 8.26512 7.11439 8.21717 7.10164C8.16921 7.0889 8.12485 7.06524 8.08755 7.03252C8.05025 6.9998 8.02101 6.9589 8.00212 6.91301C7.98323 6.86713 7.97521 6.8175 7.97867 6.768C7.98291 6.69275 8.01157 6.62094 8.06029 6.56344C8.10901 6.50594 8.17514 6.46588 8.24867 6.44933C8.33844 6.42978 8.424 6.40889 8.50533 6.38667C8.82133 6.3 9.05333 6.204 9.19867 6.11067C9.28333 6.05533 9.28333 5.94733 9.19867 5.892C9.05333 5.79867 8.82133 5.702 8.50533 5.616C7.95667 5.466 7.20933 5.36267 6.36667 5.34L6.32933 5.33933C6.24093 5.33818 6.1566 5.30196 6.0949 5.23864C6.0332 5.17531 5.99918 5.09007 6.00033 5.00167C6.00148 4.91326 6.0377 4.82893 6.10103 4.76723C6.16435 4.70553 6.24959 4.67152 6.338 4.67267L6.384 4.67333ZM6 2C6.31467 2 6.53333 2.22933 6.66933 2.44067C6.816 2.66733 6.934 2.97267 7.02933 3.31933C7.056 3.41978 7.08156 3.52511 7.106 3.63533C7.11576 3.684 7.11416 3.73426 7.10132 3.78221C7.08849 3.83016 7.06476 3.8745 7.03199 3.91178C6.99923 3.94907 6.9583 3.97829 6.9124 3.99717C6.86649 4.01606 6.81685 4.0241 6.76733 4.02067C6.69218 4.01646 6.62043 3.9879 6.56294 3.93931C6.50545 3.89072 6.46534 3.82474 6.44867 3.75133C6.4299 3.66527 6.40901 3.57969 6.386 3.49467C6.29933 3.17867 6.20333 2.94667 6.11 2.802C6.05467 2.71667 5.946 2.71667 5.89067 2.802C5.79733 2.94667 5.70133 3.17867 5.61467 3.49533C5.46333 4.05133 5.35933 4.81067 5.33733 5.66667C5.3356 5.75522 5.29938 5.8396 5.23638 5.90186C5.17338 5.96411 5.08857 5.99932 5 6C4.95631 6.00037 4.91299 5.99196 4.87261 5.97529C4.83222 5.95862 4.79559 5.93401 4.76489 5.90293C4.73418 5.87185 4.71002 5.83493 4.69384 5.79435C4.67765 5.75377 4.66977 5.71035 4.67067 5.66667C4.69267 4.764 4.80133 3.94333 4.972 3.32C5.06667 2.97267 5.18533 2.66667 5.33133 2.44067C5.46667 2.22933 5.686 2 6 2Z" fill="white"/>
</g>
<defs>
<clipPath id="clip0_662_5217">
<rect width="12" height="12" fill="white"/>
</clipPath>
</defs>
</svg>
