<svg width="12" height="12" viewBox="0 0 12 12" fill="none" xmlns="http://www.w3.org/2000/svg">
<g clip-path="url(#clip0_662_5220)">
<path d="M9.5 0H2.5C1.11929 0 0 1.11929 0 2.5V9.5C0 10.8807 1.11929 12 2.5 12H9.5C10.8807 12 12 10.8807 12 9.5V2.5C12 1.11929 10.8807 0 9.5 0Z" fill="#4E49FD"/>
<path fill-rule="evenodd" clip-rule="evenodd" d="M7.01333 9.17667C7.63272 8.979 8.18079 8.60452 8.59004 8.09932C8.99929 7.59412 9.25187 6.98026 9.31667 6.33333H7.66067C7.62067 7.49067 7.376 8.50867 7.01333 9.17667ZM6 10C6.52529 10 7.04543 9.89654 7.53073 9.69552C8.01604 9.4945 8.45699 9.19986 8.82843 8.82843C9.19986 8.45699 9.4945 8.01604 9.69552 7.53073C9.89654 7.04543 10 6.52529 10 6C10 5.47471 9.89654 4.95457 9.69552 4.46927C9.4945 3.98396 9.19986 3.54301 8.82843 3.17157C8.45699 2.80014 8.01604 2.5055 7.53073 2.30448C7.04543 2.10346 6.52529 2 6 2C4.93913 2 3.92172 2.42143 3.17157 3.17157C2.42143 3.92172 2 4.93913 2 6C2 7.06087 2.42143 8.07828 3.17157 8.82843C3.92172 9.57857 4.93913 10 6 10ZM4.98667 2.82333C4.3674 3.02111 3.81948 3.39564 3.41035 3.90083C3.00122 4.40602 2.74875 5.01982 2.684 5.66667H4.34C4.38 4.50867 4.624 3.49133 4.98667 2.82333ZM5.00667 5.66667C5.03933 4.76733 5.20467 3.98467 5.43667 3.428C5.56733 3.11467 5.706 2.904 5.826 2.782C5.86433 2.74105 5.90888 2.7064 5.958 2.67933C5.98467 2.66667 5.99667 2.66667 6 2.66667C6.00333 2.66667 6.016 2.66667 6.042 2.68C6.07067 2.69333 6.11533 2.72333 6.174 2.782C6.294 2.904 6.43267 3.114 6.56333 3.428C6.79533 3.98467 6.96067 4.768 6.994 5.66667H5.00667ZM5.00667 6.33333C5.03933 7.23267 5.20467 8.01533 5.43667 8.572C5.56733 8.88533 5.706 9.096 5.826 9.218C5.86438 9.25871 5.90892 9.29313 5.958 9.32C5.98467 9.33333 5.99667 9.33333 6 9.33333C6.00333 9.33333 6.016 9.33333 6.042 9.32C6.09108 9.29313 6.13562 9.25871 6.174 9.218C6.294 9.096 6.43267 8.886 6.56333 8.572C6.79533 8.01533 6.96067 7.232 6.994 6.33333H5.00667ZM4.33933 6.33333C4.37933 7.49067 4.624 8.50867 4.98667 9.17667C4.3674 8.97889 3.81948 8.60436 3.41035 8.09917C3.00122 7.59398 2.74875 6.98018 2.684 6.33333H4.33933ZM7.66067 5.66667C7.62067 4.50867 7.376 3.49133 7.01333 2.82333C7.63272 3.021 8.18079 3.39548 8.59004 3.90068C8.99929 4.40588 9.25187 5.01974 9.31667 5.66667H7.66067Z" fill="white"/>
</g>
<defs>
<clipPath id="clip0_662_5220">
<rect width="12" height="12" fill="white"/>
</clipPath>
</defs>
</svg>
