<svg width="12" height="12" viewBox="0 0 12 12" fill="none" xmlns="http://www.w3.org/2000/svg">
<rect width="12" height="12" rx="2" fill="#8A38F5"/>
<path fill-rule="evenodd" clip-rule="evenodd" d="M8.36791 6.63442L8.41849 6.31909C8.53588 5.59352 8.30609 4.81925 7.69416 4.20732C7.54306 4.05621 7.26269 3.88137 6.84683 3.70154C6.44159 3.52671 5.95704 3.36686 5.44127 3.22449C4.68992 3.02294 3.92986 2.85543 3.1634 2.72246L5.23521 4.79365C5.43466 4.69861 5.66128 4.67714 5.87502 4.73303C6.08877 4.78891 6.27588 4.91856 6.40329 5.09905C6.5307 5.27954 6.5902 5.49926 6.57129 5.71938C6.55237 5.93949 6.45626 6.14584 6.29993 6.30195C6.1436 6.45806 5.93711 6.55389 5.71697 6.57249C5.49682 6.59109 5.27719 6.53128 5.09688 6.40361C4.91657 6.27595 4.78719 6.08866 4.7316 5.87483C4.67602 5.66101 4.69781 5.43442 4.79313 5.23511L2.72131 3.1633C2.83995 3.83142 3.00855 4.6569 3.22459 5.44179C3.36634 5.95756 3.52619 6.4421 3.70102 6.84673C3.88085 7.26321 4.05569 7.54357 4.2068 7.69468C4.83247 8.32097 5.60549 8.55638 6.32669 8.43274L6.64515 8.37904L6.87306 8.60696L7.64171 9.37561L9.37572 7.64223L8.59332 6.86046L8.36791 6.63442ZM9.03479 6.419C9.18465 5.48925 8.88493 4.51453 8.13563 3.76523C7.19775 2.82736 4.14686 2.24166 2.68572 2.00813C2.59321 1.99257 2.49831 1.99937 2.40896 2.02796C2.31961 2.05655 2.23839 2.10609 2.17209 2.17246C2.10578 2.23882 2.05631 2.32009 2.02781 2.40946C1.9993 2.49884 1.99259 2.59374 2.00823 2.68624C2.24114 4.14738 2.82684 7.1989 3.76471 8.13677C4.52275 8.89419 5.4956 9.20764 6.43159 9.04842L7.20025 9.81707C7.25824 9.87513 7.32711 9.92119 7.40291 9.95261C7.47871 9.98403 7.55997 10.0002 7.64203 10.0002C7.72408 10.0002 7.80534 9.98403 7.88114 9.95261C7.95694 9.92119 8.02581 9.87513 8.0838 9.81707L9.81718 8.08369C9.93424 7.9666 10 7.8078 10 7.64223C10 7.47666 9.93424 7.31787 9.81718 7.20077L9.03479 6.419ZM5.85963 5.86015C5.88866 5.83116 5.91169 5.79674 5.92742 5.75885C5.94314 5.72096 5.95125 5.68035 5.95128 5.63933C5.95131 5.5983 5.94326 5.55768 5.92759 5.51977C5.91191 5.48186 5.88893 5.4474 5.85994 5.41837C5.83095 5.38935 5.79653 5.36631 5.75865 5.35059C5.72076 5.33486 5.68014 5.32675 5.63912 5.32672C5.5981 5.32669 5.55747 5.33475 5.51956 5.35042C5.48165 5.36609 5.4472 5.38907 5.41817 5.41806C5.35954 5.4766 5.32658 5.55604 5.32652 5.63888C5.32646 5.72173 5.35931 5.80121 5.41786 5.85984C5.4764 5.91846 5.55583 5.95143 5.63868 5.95149C5.72153 5.95155 5.80101 5.91869 5.85963 5.86015Z" fill="white"/>
</svg>
