<svg width="12" height="12" viewBox="0 0 12 12" fill="none" xmlns="http://www.w3.org/2000/svg">
<rect width="12" height="12" rx="2" fill="#0C8CE9"/>
<path fill-rule="evenodd" clip-rule="evenodd" d="M2.0078 2.67485C1.99273 2.58386 1.99957 2.49058 2.02776 2.40276C2.05595 2.31494 2.10467 2.23511 2.16989 2.16989C2.23511 2.10467 2.31494 2.05595 2.40276 2.02776C2.49058 1.99957 2.58386 1.99273 2.67485 2.0078L4.41497 2.29782C4.53426 2.31762 4.64438 2.3742 4.72993 2.45965L9.74497 7.47469C9.82582 7.55549 9.88996 7.65143 9.93372 7.75702C9.97748 7.86262 10 7.97581 10 8.09011C10 8.20442 9.97748 8.3176 9.93372 8.4232C9.88996 8.52879 9.82582 8.62473 9.74497 8.70553L8.70553 9.74555C8.62473 9.8264 8.52879 9.89054 8.4232 9.9343C8.3176 9.97806 8.20442 10.0006 8.09011 10.0006C7.97581 10.0006 7.86262 9.97806 7.75702 9.9343C7.65143 9.89054 7.55549 9.8264 7.47469 9.74555L2.45965 4.72993C2.37399 4.64446 2.3172 4.53433 2.29724 4.41497L2.0078 2.67485ZM2.57972 2.57972L2.68065 3.1847L2.86974 4.31984L3.38946 4.83956L4.83956 3.38946L4.31984 2.86974L3.1847 2.68065L2.57972 2.57972ZM5.25023 3.80013L3.80013 5.25023L7.88478 9.33546C7.93916 9.38983 8.01292 9.42037 8.08982 9.42037C8.16672 9.42037 8.24048 9.38983 8.29487 9.33546L9.33488 8.29545C9.38925 8.24106 9.41979 8.1673 9.41979 8.0904C9.41979 8.0135 9.38925 7.93974 9.33488 7.88536L5.24965 3.80013H5.25023Z" fill="white"/>
</svg>
