<svg width="12" height="12" viewBox="0 0 12 12" fill="none" xmlns="http://www.w3.org/2000/svg">
<g clip-path="url(#clip0_741_4318)">
<path d="M9.5 0H2.5C1.11929 0 0 1.11929 0 2.5V9.5C0 10.8807 1.11929 12 2.5 12H9.5C10.8807 12 12 10.8807 12 9.5V2.5C12 1.11929 10.8807 0 9.5 0Z" fill="black"/>
<path d="M4.50049 10.5C5.32849 10.5 6.00049 9.828 6.00049 9V7.5H4.50049C3.67249 7.5 3.00049 8.172 3.00049 9C3.00049 9.828 3.67249 10.5 4.50049 10.5Z" fill="#0ACF83"/>
<path d="M3.00049 6C3.00049 5.172 3.67249 4.5 4.50049 4.5H6.00049V7.5H4.50049C3.67249 7.5 3.00049 6.828 3.00049 6Z" fill="#A259FF"/>
<path d="M3.00049 3C3.00049 2.172 3.67249 1.5 4.50049 1.5H6.00049V4.5H4.50049C3.67249 4.5 3.00049 3.828 3.00049 3Z" fill="#F24E1E"/>
<path d="M6.00049 1.5H7.50049C8.32849 1.5 9.00049 2.172 9.00049 3C9.00049 3.828 8.32849 4.5 7.50049 4.5H6.00049V1.5Z" fill="#FF7262"/>
<path d="M9.00049 6C9.00049 6.828 8.32849 7.5 7.50049 7.5C6.67249 7.5 6.00049 6.828 6.00049 6C6.00049 5.172 6.67249 4.5 7.50049 4.5C8.32849 4.5 9.00049 5.172 9.00049 6Z" fill="#1ABCFE"/>
</g>
<defs>
<clipPath id="clip0_741_4318">
<rect width="12" height="12" fill="white"/>
</clipPath>
</defs>
</svg>
