<svg fill="none" height="12" viewBox="0 0 12 12" width="12" xmlns="http://www.w3.org/2000/svg"><rect fill="#8a38f5" height="12" rx="2.5" width="12"/><path clip-rule="evenodd" d="m8.36791 6.63443.05058-.31533c.11739-.72558-.1124-1.49985-.72433-2.11178-.1511-.15111-.43147-.32594-.84733-.50578-.40524-.17483-.88979-.33468-1.40556-.47705-.75135-.20155-1.51141-.36906-2.27787-.50203l2.07181 2.07119c.19945-.09504.42607-.11651.63981-.06062.21375.05588.40086.18553.52827.36602s.18691.40021.168.62033c-.01892.22012-.11503.42646-.27136.58257s-.36282.25194-.58296.27054c-.22015.0186-.43978-.04121-.62009-.16888-.18031-.12766-.30969-.31495-.36528-.52878-.05558-.21382-.03379-.44041.06153-.63972l-2.07182-2.07181c.11864.66812.28724 1.4936.50328 2.27849.14175.51577.3016 1.00032.47643 1.40494.17983.41648.35467.69685.50578.84795.62567.62629 1.39869.8617 2.11989.73806l.31846-.0537.22791.22792.76865.76865 1.73401-1.73338-.7824-.78177zm.66688-.21543c.14986-.92975-.14986-1.90447-.89916-2.65377-.93788-.93787-3.98877-1.52357-5.44991-1.7571-.09251-.01556-.18741-.00876-.27676.01983s-.17057.07813-.23687.1445c-.06631.06636-.11578.14763-.14428.23701-.02851.08937-.03522.18427-.01958.27677.23291 1.46114.81861 4.51266 1.75648 5.45053.75804.75742 1.73089 1.07088 2.66688.91165l.76866.76865c.05799.05806.12686.10412.20266.13554s.15706.04759.23912.04759c.08205 0 .16331-.01617.23911-.04759s.14467-.07748.20266-.13554l1.73338-1.73337c.11706-.1171.18282-.27589.18282-.44147 0-.16557-.06576-.32436-.18282-.44146zm-3.17516-.55885c.02903-.02899.05206-.06341.06779-.1013.01572-.03788.02383-.0785.02386-.11952.00003-.04103-.00802-.08165-.02369-.11956-.01568-.03791-.03866-.07237-.06765-.10139-.02899-.02903-.06341-.05207-.10129-.06779-.03789-.01573-.07851-.02384-.11953-.02386-.04102-.00003-.08165.00802-.11956.02369s-.07236.03866-.10139.06764c-.05863.05854-.09159.13798-.09165.22083s.03279.16232.09134.22095c.05854.05862.13797.09159.22082.09165s.16233-.0328.22095-.09134z" fill="#fff" fill-rule="evenodd"/></svg>