<svg width="12" height="12" viewBox="0 0 12 12" fill="none" xmlns="http://www.w3.org/2000/svg">
<g clip-path="url(#clip0_210_155)">
<path d="M0 0H12V12H0V0Z" fill="url(#paint0_linear_210_155)"/>
<g opacity="0.8" filter="url(#filter0_d_210_155)">
<g style="mix-blend-mode:multiply">
<path d="M8.25372 8.1577C8.29559 8.19957 8.36299 8.20197 8.40659 8.1619C9.86974 6.81727 9.93722 4.44154 8.51926 3.02359C7.10132 1.60563 4.7256 1.67313 3.38097 3.13626C3.3409 3.17985 3.3433 3.24728 3.38517 3.28915L8.25372 8.1577Z" fill="white"/>
</g>
</g>
<g opacity="0.3" filter="url(#filter1_f_210_155)">
<path d="M8.25372 8.1577C8.29559 8.19957 8.36299 8.20197 8.40659 8.1619C9.86974 6.81727 9.93722 4.44154 8.51926 3.02359C7.10132 1.60563 4.7256 1.67313 3.38097 3.13626C3.3409 3.17985 3.3433 3.24728 3.38517 3.28915L8.25372 8.1577Z" fill="url(#paint1_linear_210_155)"/>
</g>
<g opacity="0.3" filter="url(#filter2_f_210_155)">
<path d="M6.14009 7.72061C6.20114 7.68474 6.21122 7.60091 6.1629 7.54916L2.75154 3.89799C2.70107 3.84396 2.61311 3.85219 2.57605 3.91617C2.51702 4.01806 2.46285 4.1227 2.41373 4.22972C2.39437 4.27194 2.404 4.32158 2.43689 4.35437L5.8655 7.77073C5.88152 7.78671 5.90197 7.7975 5.92421 7.80171C5.94644 7.80592 5.96942 7.80335 5.99018 7.79434C6.05775 7.76493 6.09074 7.74957 6.14009 7.72061Z" fill="url(#paint2_linear_210_155)"/>
</g>
<path d="M8.53485 8.95898C8.57882 9.00295 8.64942 9.00565 8.69531 8.9637C8.74058 8.92235 8.78491 8.87998 8.82827 8.83663C10.3926 7.27231 10.3926 4.73604 8.82827 3.1717C7.26392 1.60738 4.72766 1.60738 3.16334 3.1717C3.11999 3.21506 3.07762 3.25939 3.03626 3.30465C2.99432 3.35055 2.99702 3.42115 3.04099 3.46512L8.53485 8.95898Z" fill="url(#paint3_linear_210_155)"/>
<path d="M8.53485 8.95898C8.57882 9.00295 8.64942 9.00565 8.69531 8.9637C8.74058 8.92235 8.78491 8.87998 8.82827 8.83663C10.3926 7.27231 10.3926 4.73604 8.82827 3.1717C7.26392 1.60738 4.72766 1.60738 3.16334 3.1717C3.11999 3.21506 3.07762 3.25939 3.03626 3.30465C2.99432 3.35055 2.99702 3.42115 3.04099 3.46512L8.53485 8.95898Z" fill="url(#paint4_radial_210_155)"/>
<path d="M8.0091 9.46834C8.0748 9.43012 8.08473 9.34034 8.03098 9.28659L2.71347 3.96908C2.65972 3.91533 2.56994 3.92526 2.53172 3.99096C2.46684 4.10242 2.40742 4.21698 2.35367 4.33423C2.33339 4.37852 2.34342 4.43057 2.37788 4.46501L7.53503 9.62218C7.56949 9.65664 7.62154 9.66667 7.66583 9.64639C7.78308 9.59264 7.89763 9.53322 8.0091 9.46834Z" fill="url(#paint5_linear_210_155)"/>
<path d="M8.0091 9.46834C8.0748 9.43012 8.08473 9.34034 8.03098 9.28659L2.71347 3.96908C2.65972 3.91533 2.56994 3.92526 2.53172 3.99096C2.46684 4.10242 2.40742 4.21698 2.35367 4.33423C2.33339 4.37852 2.34342 4.43057 2.37788 4.46501L7.53503 9.62218C7.56949 9.65664 7.62154 9.66667 7.66583 9.64639C7.78308 9.59264 7.89763 9.53322 8.0091 9.46834Z" fill="url(#paint6_radial_210_155)"/>
<path d="M6.76671 9.93543C6.85722 9.91775 6.88826 9.80698 6.82306 9.74178L2.25825 5.17698C2.19305 5.11178 2.08228 5.14281 2.0646 5.23333C2.03484 5.3859 2.01394 5.54007 2.00202 5.69507C2.00079 5.71186 2.0032 5.72873 2.0091 5.7445C2.01499 5.76028 2.02424 5.77459 2.03619 5.78645L6.21358 9.96385C6.22545 9.9758 6.23976 9.98504 6.25554 9.99093C6.27131 9.99683 6.28817 9.99925 6.30497 9.99801C6.45996 9.98609 6.61413 9.9652 6.76671 9.93543Z" fill="url(#paint7_linear_210_155)"/>
<path d="M6.76671 9.93543C6.85722 9.91775 6.88826 9.80698 6.82306 9.74178L2.25825 5.17698C2.19305 5.11178 2.08228 5.14281 2.0646 5.23333C2.03484 5.3859 2.01394 5.54007 2.00202 5.69507C2.00079 5.71186 2.0032 5.72873 2.0091 5.7445C2.01499 5.76028 2.02424 5.77459 2.03619 5.78645L6.21358 9.96385C6.22545 9.9758 6.23976 9.98504 6.25554 9.99093C6.27131 9.99683 6.28817 9.99925 6.30497 9.99801C6.45996 9.98609 6.61413 9.9652 6.76671 9.93543Z" fill="url(#paint8_radial_210_155)"/>
<path d="M5.02513 9.89114C5.13643 9.91883 5.20523 9.78722 5.12415 9.70612L2.29376 6.87573C2.21265 6.79464 2.08107 6.86345 2.10873 6.97474C2.2784 7.657 2.6299 8.30331 3.16324 8.83663C3.69656 9.36995 4.34288 9.72147 5.02513 9.89114Z" fill="url(#paint9_linear_210_155)"/>
<path d="M5.02513 9.89114C5.13643 9.91883 5.20523 9.78722 5.12415 9.70612L2.29376 6.87573C2.21265 6.79464 2.08107 6.86345 2.10873 6.97474C2.2784 7.657 2.6299 8.30331 3.16324 8.83663C3.69656 9.36995 4.34288 9.72147 5.02513 9.89114Z" fill="url(#paint10_radial_210_155)"/>
<g style="mix-blend-mode:soft-light">
<path d="M8.65318 8.91754C8.63277 8.93619 8.60018 8.93587 8.57907 8.91476L3.08524 3.42093C3.06413 3.39982 3.0638 3.36723 3.08246 3.34682C3.12318 3.30225 3.1649 3.25861 3.20759 3.21592C4.74749 1.67603 7.24417 1.67603 8.78408 3.21592C10.324 4.75583 10.324 7.2525 8.78408 8.79241C8.74139 8.8351 8.69775 8.87682 8.65318 8.91754ZM7.9867 9.33078C8.01266 9.35674 8.00636 9.39756 7.9776 9.41432C7.86788 9.47817 7.75511 9.53664 7.63971 9.58954C7.61985 9.59864 7.59567 9.59447 7.57918 9.57798L2.42201 4.42081C2.40553 4.40433 2.40135 4.38015 2.41046 4.36029C2.46335 4.24488 2.52183 4.13212 2.58568 4.0224C2.60244 3.99364 2.64325 3.98733 2.66922 4.0133L7.9867 9.33078ZM6.77881 9.78599C6.81072 9.81791 6.79316 9.86655 6.7547 9.87406C6.60449 9.90336 6.45272 9.92393 6.30013 9.93566C6.29234 9.9362 6.28451 9.93505 6.2772 9.93229C6.26988 9.92953 6.26326 9.92522 6.25777 9.91965L2.08035 5.74223C2.07478 5.73674 2.07047 5.73011 2.06771 5.7228C2.06494 5.71549 2.0638 5.70766 2.06434 5.69986C2.07607 5.54728 2.09664 5.3955 2.12594 5.2453C2.13344 5.20684 2.18209 5.18928 2.214 5.22119L6.77881 9.78599ZM5.08006 9.75033C5.10031 9.77059 5.10037 9.79372 5.09166 9.81013C5.08333 9.82589 5.06648 9.83694 5.04034 9.83046C4.36881 9.66344 3.73265 9.3175 3.20759 8.79241C2.6825 8.26734 2.33655 7.63118 2.16953 6.95966C2.16306 6.93352 2.17411 6.91666 2.18987 6.90834C2.20627 6.89963 2.22941 6.89968 2.24967 6.91994L5.08006 9.75033Z" stroke="white" stroke-opacity="0.5" stroke-width="0.125051"/>
</g>
</g>
<defs>
<filter id="filter0_d_210_155" x="2.75205" y="1.27016" width="7.39263" height="7.3926" filterUnits="userSpaceOnUse" color-interpolation-filters="sRGB">
<feFlood flood-opacity="0" result="BackgroundImageFix"/>
<feColorMatrix in="SourceAlpha" type="matrix" values="0 0 0 0 0 0 0 0 0 0 0 0 0 0 0 0 0 0 127 0" result="hardAlpha"/>
<feOffset dy="-0.128053"/>
<feGaussianBlur stdDeviation="0.300123"/>
<feComposite in2="hardAlpha" operator="out"/>
<feColorMatrix type="matrix" values="0 0 0 0 1 0 0 0 0 1 0 0 0 0 1 0 0 0 0.4 0"/>
<feBlend mode="normal" in2="BackgroundImageFix" result="effect1_dropShadow_210_155"/>
<feBlend mode="normal" in="SourceGraphic" in2="effect1_dropShadow_210_155" result="shape"/>
</filter>
<filter id="filter1_f_210_155" x="3.10219" y="1.74836" width="6.69234" height="6.69231" filterUnits="userSpaceOnUse" color-interpolation-filters="sRGB">
<feFlood flood-opacity="0" result="BackgroundImageFix"/>
<feBlend mode="normal" in="SourceGraphic" in2="BackgroundImageFix" result="shape"/>
<feGaussianBlur stdDeviation="0.125051" result="effect1_foregroundBlur_210_155"/>
</filter>
<filter id="filter2_f_210_155" x="2.15371" y="3.61217" width="4.28976" height="4.44161" filterUnits="userSpaceOnUse" color-interpolation-filters="sRGB">
<feFlood flood-opacity="0" result="BackgroundImageFix"/>
<feBlend mode="normal" in="SourceGraphic" in2="BackgroundImageFix" result="shape"/>
<feGaussianBlur stdDeviation="0.125051" result="effect1_foregroundBlur_210_155"/>
</filter>
<linearGradient id="paint0_linear_210_155" x1="6" y1="0" x2="6" y2="12" gradientUnits="userSpaceOnUse">
<stop stop-color="#2D2E31"/>
<stop offset="1" stop-color="#0F1012"/>
</linearGradient>
<linearGradient id="paint1_linear_210_155" x1="6.00765" y1="1.98176" x2="6.00765" y2="9.08868" gradientUnits="userSpaceOnUse">
<stop stop-color="white"/>
<stop offset="1" stop-color="#C5C5C5"/>
</linearGradient>
<linearGradient id="paint2_linear_210_155" x1="4.05818" y1="3.78039" x2="4.05818" y2="8.37923" gradientUnits="userSpaceOnUse">
<stop stop-color="white"/>
<stop offset="1" stop-color="#C5C5C5"/>
</linearGradient>
<linearGradient id="paint3_linear_210_155" x1="5.99985" y1="1.99847" x2="5.99985" y2="10.0018" gradientUnits="userSpaceOnUse">
<stop stop-color="white"/>
<stop offset="1" stop-color="#CCCCCC"/>
</linearGradient>
<radialGradient id="paint4_radial_210_155" cx="0" cy="0" r="1" gradientUnits="userSpaceOnUse" gradientTransform="translate(5.99986 1.99847) rotate(90) scale(8.00329)">
<stop stop-color="white"/>
<stop offset="0.598" stop-color="white" stop-opacity="0"/>
</radialGradient>
<linearGradient id="paint5_linear_210_155" x1="5.99995" y1="1.99847" x2="5.99995" y2="10.0018" gradientUnits="userSpaceOnUse">
<stop stop-color="white"/>
<stop offset="1" stop-color="#CCCCCC"/>
</linearGradient>
<radialGradient id="paint6_radial_210_155" cx="0" cy="0" r="1" gradientUnits="userSpaceOnUse" gradientTransform="translate(5.99995 1.99847) rotate(90) scale(8.00329 8.00329)">
<stop stop-color="white"/>
<stop offset="0.598" stop-color="white" stop-opacity="0"/>
</radialGradient>
<linearGradient id="paint7_linear_210_155" x1="5.99992" y1="1.99847" x2="5.99992" y2="10.0018" gradientUnits="userSpaceOnUse">
<stop stop-color="white"/>
<stop offset="1" stop-color="#CCCCCC"/>
</linearGradient>
<radialGradient id="paint8_radial_210_155" cx="0" cy="0" r="1" gradientUnits="userSpaceOnUse" gradientTransform="translate(5.99992 1.99847) rotate(90) scale(8.00329)">
<stop stop-color="white"/>
<stop offset="0.598" stop-color="white" stop-opacity="0"/>
</radialGradient>
<linearGradient id="paint9_linear_210_155" x1="5.99976" y1="1.99847" x2="5.99976" y2="10.0018" gradientUnits="userSpaceOnUse">
<stop stop-color="white"/>
<stop offset="1" stop-color="#CCCCCC"/>
</linearGradient>
<radialGradient id="paint10_radial_210_155" cx="0" cy="0" r="1" gradientUnits="userSpaceOnUse" gradientTransform="translate(5.99976 1.99847) rotate(90) scale(8.00329)">
<stop stop-color="white"/>
<stop offset="0.598" stop-color="white" stop-opacity="0"/>
</radialGradient>
<clipPath id="clip0_210_155">
<rect width="12" height="12" rx="2" fill="white"/>
</clipPath>
</defs>
</svg>
