<svg fill="none" height="12" viewBox="0 0 12 12" width="12" xmlns="http://www.w3.org/2000/svg" xmlns:xlink="http://www.w3.org/1999/xlink"><filter id="a" color-interpolation-filters="sRGB" filterUnits="userSpaceOnUse" height="7.39261" width="7.39257" x="2.75186" y="1.27016"><feFlood flood-opacity="0" result="BackgroundImageFix"/><feColorMatrix in="SourceAlpha" result="hardAlpha" type="matrix" values="0 0 0 0 0 0 0 0 0 0 0 0 0 0 0 0 0 0 127 0"/><feOffset dy="-.128053"/><feGaussianBlur stdDeviation=".300123"/><feComposite in2="hardAlpha" operator="out"/><feColorMatrix type="matrix" values="0 0 0 0 1 0 0 0 0 1 0 0 0 0 1 0 0 0 0.4 0"/><feBlend in2="BackgroundImageFix" mode="normal" result="effect1_dropShadow_223_295"/><feBlend in="SourceGraphic" in2="effect1_dropShadow_223_295" mode="normal" result="shape"/></filter><filter id="b" color-interpolation-filters="sRGB" filterUnits="userSpaceOnUse" height="6.69232" width="6.69228" x="3.10201" y="1.74836"><feFlood flood-opacity="0" result="BackgroundImageFix"/><feBlend in="SourceGraphic" in2="BackgroundImageFix" mode="normal" result="shape"/><feGaussianBlur result="effect1_foregroundBlur_223_295" stdDeviation=".125051"/></filter><filter id="c" color-interpolation-filters="sRGB" filterUnits="userSpaceOnUse" height="4.44161" width="4.28982" x="2.15371" y="3.61218"><feFlood flood-opacity="0" result="BackgroundImageFix"/><feBlend in="SourceGraphic" in2="BackgroundImageFix" mode="normal" result="shape"/><feGaussianBlur result="effect1_foregroundBlur_223_295" stdDeviation=".125051"/></filter><linearGradient id="d" gradientUnits="userSpaceOnUse" x1="6" x2="6" y1="0" y2="12"><stop offset="0" stop-color="#2d2e31"/><stop offset="1" stop-color="#0f1012"/></linearGradient><linearGradient id="e"><stop offset="0" stop-color="#fff"/><stop offset="1" stop-color="#c5c5c5"/></linearGradient><linearGradient id="f" gradientUnits="userSpaceOnUse" x1="6.00747" x2="6.00747" xlink:href="#e" y1="1.98176" y2="9.08869"/><linearGradient id="g" gradientUnits="userSpaceOnUse" x1="4.05818" x2="4.05818" xlink:href="#e" y1="3.7804" y2="8.37924"/><linearGradient id="h"><stop offset="0" stop-color="#fff"/><stop offset="1" stop-color="#ccc"/></linearGradient><linearGradient id="i" gradientUnits="userSpaceOnUse" x1="5.99992" x2="5.99992" xlink:href="#h" y1="1.99847" y2="10.0018"/><linearGradient id="j"><stop offset="0" stop-color="#fff"/><stop offset=".598" stop-color="#fff" stop-opacity="0"/></linearGradient><radialGradient id="k" cx="0" cy="0" gradientTransform="matrix(0 8.00329 -8.00329 0 5.99992 1.99847)" gradientUnits="userSpaceOnUse" r="1" xlink:href="#j"/><linearGradient id="l" gradientUnits="userSpaceOnUse" x1="5.99983" x2="5.99983" xlink:href="#h" y1="1.99847" y2="10.0018"/><radialGradient id="m" cx="0" cy="0" gradientTransform="matrix(0 8.00329 -8.00329 0 5.99983 1.99847)" gradientUnits="userSpaceOnUse" r="1" xlink:href="#j"/><linearGradient id="n" gradientUnits="userSpaceOnUse" x1="5.9998" x2="5.9998" xlink:href="#h" y1="1.99847" y2="10.0018"/><radialGradient id="o" cx="0" cy="0" gradientTransform="matrix(0 8.00329 -8.00329 0 5.9998 1.99847)" gradientUnits="userSpaceOnUse" r="1" xlink:href="#j"/><linearGradient id="p" gradientUnits="userSpaceOnUse" x1="5.99976" x2="5.99976" xlink:href="#h" y1="1.99847" y2="10.0018"/><radialGradient id="q" cx="0" cy="0" gradientTransform="matrix(0 8.00329 -8.00329 0 5.99976 1.99847)" gradientUnits="userSpaceOnUse" r="1" xlink:href="#j"/><clipPath id="r"><rect height="12" rx="2.5" width="12"/></clipPath><g clip-path="url(#r)"><path d="m0 0h12v12h-12z" fill="url(#d)"/><g filter="url(#a)" opacity=".8"><path d="m8.25354 8.1577c.04187.04187.10927.04427.15286.00421 1.46315-1.34463 1.53063-3.72036.11267-5.13832-1.41793-1.41796-3.79366-1.35045-5.13828.11267-.04007.0436-.03767.11102.0042.15289z" fill="#fff"/></g><g filter="url(#b)" opacity=".3"><path d="m8.25354 8.1577c.04187.04187.10927.04427.15286.00421 1.46315-1.34463 1.53063-3.72036.11267-5.13832-1.41793-1.41796-3.79366-1.35045-5.13828.11267-.04007.0436-.03767.11102.0042.15289z" fill="url(#f)"/></g><g filter="url(#c)" opacity=".3"><path d="m6.14009 7.72062c.06105-.03587.07113-.1197.02281-.17145l-3.41136-3.65117c-.05047-.05403-.13843-.0458-.17549.01818-.05903.10189-.1132.20653-.16232.31355-.01936.04222-.00973.09187.02316.12465l3.42861 3.41636c.01602.01598.03647.02677.05871.03098.02223.00421.04521.00164.06597-.00737.06757-.02941.10056-.04477.14991-.07373z" fill="url(#g)"/></g><path d="m8.53491 8.95898c.04397.04397.11457.04667.16046.00473.04527-.04136.0896-.08373.13296-.12708 1.56427-1.56431 1.56427-4.10058 0-5.66493-1.56434-1.56432-4.10061-1.56432-5.66493 0-.04335.04336-.08572.08769-.12708.13296-.04194.04589-.03924.1165.00473.16046z" fill="url(#i)"/><path d="m8.53491 8.95898c.04397.04397.11457.04667.16046.00473.04527-.04136.0896-.08373.13296-.12708 1.56427-1.56431 1.56427-4.10058 0-5.66493-1.56434-1.56432-4.10061-1.56432-5.66493 0-.04335.04336-.08572.08769-.12708.13296-.04194.04589-.03924.1165.00473.16046z" fill="url(#k)"/><path d="m8.00898 9.46834c.0657-.03822.07563-.128.02188-.18175l-5.31751-5.31751c-.05375-.05375-.14354-.04382-.18175.02188-.06489.11147-.12431.22602-.17805.34327-.02028.04429-.01025.09634.02421.13078l5.15715 5.15717c.03446.03446.08651.04449.1308.02421.11725-.05375.2318-.11317.34327-.17805z" fill="url(#l)"/><path d="m8.00898 9.46834c.0657-.03822.07563-.128.02188-.18175l-5.31751-5.31751c-.05375-.05375-.14354-.04382-.18175.02188-.06489.11147-.12431.22602-.17805.34327-.02028.04429-.01025.09634.02421.13078l5.15715 5.15717c.03446.03446.08651.04449.1308.02421.11725-.05375.2318-.11317.34327-.17805z" fill="url(#m)"/><path d="m6.76659 9.93543c.09051-.01768.12155-.12845.05635-.19365l-4.56481-4.56481c-.0652-.0652-.17597-.03416-.19365.05635-.02977.15258-.05066.30675-.06258.46174-.00123.0168.00118.03366.00708.04944.00589.01577.01513.03008.02709.04195l4.17739 4.17739c.01187.01195.02618.02119.04195.02709.01578.0059.03264.00831.04944.00708.15499-.01192.30916-.03282.46174-.06258z" fill="url(#n)"/><path d="m6.76659 9.93543c.09051-.01768.12155-.12845.05635-.19365l-4.56481-4.56481c-.0652-.0652-.17597-.03416-.19365.05635-.02977.15258-.05066.30675-.06258.46174-.00123.0168.00118.03366.00708.04944.00589.01577.01513.03008.02709.04195l4.17739 4.17739c.01187.01195.02618.02119.04195.02709.01578.0059.03264.00831.04944.00708.15499-.01192.30916-.03282.46174-.06258z" fill="url(#o)"/><path d="m5.02513 9.89114c.1113.02769.1801-.10392.09902-.18503l-2.83039-2.83038c-.08111-.08109-.21269-.01229-.18503.09901.16967.68226.52117 1.32857 1.05451 1.86189.53332.53332 1.17964.88484 1.86189 1.05451z" fill="url(#p)"/><path d="m5.02513 9.89114c.1113.02769.1801-.10392.09902-.18503l-2.83039-2.83038c-.08111-.08109-.21269-.01229-.18503.09901.16967.68226.52117 1.32857 1.05451 1.86189.53332.53332 1.17964.88484 1.86189 1.05451z" fill="url(#q)"/><path d="m8.65305 8.91754c-.0204.01866-.05299.01833-.0741-.00278l-5.49384-5.49383c-.0211-.02111-.02143-.0537-.00277-.07411.04072-.04457.08244-.08821.12512-.1309 1.53991-1.53988 4.03659-1.53988 5.5765 0 1.53994 1.53991 1.53994 4.03658 0 5.57649-.04269.04269-.08634.08441-.13091.12513zm-.66647.41324c.02596.02596.01966.06678-.0091.08354-.10973.06385-.22249.12233-.33789.17522-.01986.0091-.04405.00493-.06053-.01155l-5.15717-5.15718c-.01648-.01648-.02066-.04066-.01155-.06052.05289-.1154.11137-.22817.17522-.33789.01676-.02876.05757-.03506.08353-.0091zm-1.2079.45522c.03192.03191.01436.08055-.02411.08806-.1502.0293-.30197.04987-.45456.0616-.0078.00054-.01562-.0006-.02293-.00337-.00732-.00276-.01395-.00707-.01944-.01264l-4.17741-4.17742c-.00557-.00549-.00988-.01212-.01265-.01943-.00276-.00731-.00391-.01514-.00336-.02293.01173-.15259.0323-.30436.0616-.45457.0075-.03846.05615-.05602.08806-.02411zm-1.69875-.03567c.02026.02026.02031.04339.01161.0598-.00833.01576-.02519.02681-.05132.02033-.67153-.16701-1.30769-.51296-1.83276-1.03805-.52509-.52506-.87103-1.16122-1.03805-1.83275-.00648-.02614.00458-.04299.02034-.05132.0164-.00871.03954-.00866.0598.0116z" stroke="#fff" stroke-opacity=".5" stroke-width=".125051"/></g></svg>