<svg fill="none" height="12" viewBox="0 0 12 12" width="12" xmlns="http://www.w3.org/2000/svg"><rect fill="#f3f3f3" height="12" rx="2.5" width="12"/><path d="m2.48136 2.34506 4.42664-.32696c.54376-.04664.68344-.0152 1.02536.23336l1.41304.99544c.23304.1712.31064.21784.31064.40424v5.45944c0 .34216-.12424.54456-.5592.57544l-5.14048.31136c-.3264.01542-.48184-.0312-.6528-.24904l-1.04056-1.35312c-.18664-.24904-.264-.43544-.264-.65336v-4.8528c0-.27976.12424-.51304.48136-.544z" fill="#fff"/><path clip-rule="evenodd" d="m6.908 2.01818-4.42664.32696c-.35712.03088-.48136.26424-.48136.54392v4.8528c0 .21784.07736.40424.264.65336l1.04056 1.35304c.17096.21784.3264.26454.6528.24904l5.14056-.3112c.43464-.03096.5592-.23336.5592-.57544v-5.45944c0-.1768-.06984-.22776-.27544-.37864l-1.44832-1.02112c-.34184-.24856-.4816-.28-1.02536-.23336zm-2.8344 1.54368c-.41976.02824-.51496.03464-.75336-.1592l-.60608-.48208c-.0616-.0624-.03064-.14024.12456-.15576l4.25544-.31096c.35736-.0312.54344.09336.6832.20216l.72984.5288c.0312.01576.1088.1088.01544.1088l-4.39464.26456zm-.48936 5.50216v-4.63464c0-.2024.06216-.29576.24824-.31144l5.04752-.29552c.1712-.01544.24856.09336.24856.29544v4.60376c0 .2024-.0312.3736-.31064.38904l-4.83016.28c-.27944.01544-.40344-.0776-.40344-.32664zm4.768-4.38616c.03096.14 0 .28-.14.296l-.2328.04616v3.42184c-.20216.1088-.38824.17096-.54376.17096-.24856 0-.31064-.07784-.4968-.31096l-1.5224-2.3952v2.31736l.4816.10904s0 .28-.38856.28l-1.0712.06216c-.0312-.0624 0-.21784.10856-.2488l.27976-.0776v-3.064l-.38824-.03144c-.0312-.14.0464-.34216.264-.35784l1.14936-.07736 1.584 2.42616v-2.1464l-.40376-.0464c-.0312-.17144.09304-.296.24824-.3112z" fill="#000" fill-rule="evenodd"/></svg>