<svg width="12" height="12" viewBox="0 0 12 12" fill="none" xmlns="http://www.w3.org/2000/svg">
<rect width="12" height="12" rx="2" fill="#F3F3F3"/>
<g clip-path="url(#clip0_210_228)">
<path d="M2.48136 2.34506L6.908 2.0181C7.45176 1.97146 7.59144 2.0029 7.93336 2.25146L9.3464 3.2469C9.57944 3.4181 9.65704 3.46474 9.65704 3.65114V9.11058C9.65704 9.45274 9.5328 9.65514 9.09784 9.68602L3.95736 9.99738C3.63096 10.0128 3.47552 9.96618 3.30456 9.74834L2.264 8.39522C2.07736 8.14618 2 7.95978 2 7.74186V2.88906C2 2.6093 2.12424 2.37602 2.48136 2.34506Z" fill="white"/>
<path fill-rule="evenodd" clip-rule="evenodd" d="M6.908 2.01818L2.48136 2.34514C2.12424 2.37602 2 2.60938 2 2.88906V7.74186C2 7.9597 2.07736 8.1461 2.264 8.39522L3.30456 9.74826C3.47552 9.9661 3.63096 10.0128 3.95736 9.9973L9.09792 9.6861C9.53256 9.65514 9.65712 9.45274 9.65712 9.11066V3.65122C9.65712 3.47442 9.58728 3.42346 9.38168 3.27258L7.93336 2.25146C7.59152 2.0029 7.45176 1.97146 6.908 2.0181V2.01818ZM4.0736 3.56186C3.65384 3.5901 3.55864 3.5965 3.32024 3.40266L2.71416 2.92058C2.65256 2.85818 2.68352 2.78034 2.83872 2.76482L7.09416 2.45386C7.45152 2.42266 7.6376 2.54722 7.77736 2.65602L8.5072 3.18482C8.5384 3.20058 8.616 3.29362 8.52264 3.29362L4.128 3.55818L4.0736 3.56186ZM3.58424 9.06402V4.42938C3.58424 4.22698 3.6464 4.13362 3.83248 4.11794L8.88 3.82242C9.0512 3.80698 9.12856 3.91578 9.12856 4.11786V8.72162C9.12856 8.92402 9.09736 9.09522 8.81792 9.11066L3.98776 9.39066C3.70832 9.4061 3.58432 9.31306 3.58432 9.06402H3.58424ZM8.35224 4.67786C8.3832 4.81786 8.35224 4.95786 8.21224 4.97386L7.97944 5.02002V8.44186C7.77728 8.55066 7.5912 8.61282 7.43568 8.61282C7.18712 8.61282 7.12504 8.53498 6.93888 8.30186L5.41648 5.90666V8.22402L5.89808 8.33306C5.89808 8.33306 5.89808 8.61306 5.50952 8.61306L4.43832 8.67522C4.40712 8.61282 4.43832 8.45738 4.54688 8.42642L4.82664 8.34882V5.28482L4.4384 5.25338C4.4072 5.11338 4.4848 4.91122 4.7024 4.89554L5.85176 4.81818L7.43576 7.24434V5.09794L7.032 5.05154C7.0008 4.8801 7.12504 4.75554 7.28024 4.74034L8.35224 4.67786Z" fill="black"/>
</g>
<defs>
<clipPath id="clip0_210_228">
<rect width="8" height="8" fill="white" transform="translate(2 2)"/>
</clipPath>
</defs>
</svg>
