<svg fill="none" height="12" viewBox="0 0 12 12" width="12" xmlns="http://www.w3.org/2000/svg"><rect fill="#4a154b" height="12" rx="2.5" width="12"/><path d="m3.71341 7.03937c0 .45984-.37166.83149-.8315.83149s-.83149-.37165-.83149-.83149c0-.45985.37165-.8315.83149-.8315h.8315zm.41575 0c0-.45985.37165-.8315.83149-.8315s.8315.37165.8315.8315v2.07874c0 .45984-.37166.83149-.8315.83149s-.83149-.37165-.83149-.83149z" fill="#e01e5a"/><path d="m4.9606 3.70079c-.45984 0-.83149-.37166-.83149-.8315s.37165-.83149.83149-.83149c.45985 0 .8315.37165.8315.83149v.8315zm0 .42205c.45985 0 .8315.37165.8315.83149s-.37165.8315-.8315.8315h-2.08504c-.45984 0-.83149-.37166-.83149-.8315s.37165-.83149.83149-.83149z" fill="#36c5f0"/><path d="m8.29297 4.95433c0-.45984.37166-.83149.8315-.83149s.8315.37165.8315.83149-.37166.8315-.8315.8315h-.8315zm-.41574 0c0 .45984-.37166.8315-.8315.8315s-.8315-.37166-.8315-.8315v-2.08504c0-.45984.37166-.83149.8315-.83149s.8315.37165.8315.83149z" fill="#2eb67d"/><path d="m7.04573 8.28661c.45984 0 .8315.37165.8315.8315 0 .45984-.37166.83149-.8315.83149s-.8315-.37165-.8315-.83149v-.8315zm0-.41575c-.45984 0-.8315-.37165-.8315-.83149 0-.45985.37166-.8315.8315-.8315h2.08504c.45984 0 .83149.37165.83149.8315 0 .45984-.37165.83149-.83149.83149z" fill="#ecb22e"/></svg>