<svg fill="none" height="12" viewBox="0 0 12 12" width="12" xmlns="http://www.w3.org/2000/svg"><rect fill="#1ed760" height="12" rx="2.5" width="12"/><path d="m6.00073 2.125c-2.13906 0-3.875 1.73594-3.875 3.875s1.73594 3.875 3.875 3.875 3.875-1.73594 3.875-3.875-1.73594-3.875-3.875-3.875z" fill="#000"/><path d="m8.47888 5.61094c-.08125 0-.13125-.02031-.20156-.06093-1.1125-.66407-3.10156-.82344-4.38906-.46407-.05625.01563-.12657.04063-.20157.04063-.20625 0-.36406-.16094-.36406-.36875 0-.2125.13125-.33281.27188-.37344.55-.16094 1.16562-.2375 1.83593-.2375 1.14063 0 2.33594.2375 3.20938.74688.12187.07031.20156.16718.20156.35312 0 .2125-.17187.36406-.3625.36406zm-.48437 1.19063c-.08125 0-.13594-.03594-.19219-.06563-.97656-.57812-2.43281-.81093-3.72813-.45937-.075.02031-.11562.04062-.18593.04062-.16719 0-.30313-.13593-.30313-.30312s.08125-.27813.24219-.32344c.43437-.12187.87812-.2125 1.52812-.2125 1.01407 0 1.99375.25156 2.76563.71094.12656.075.17656.17187.17656.30781-.00156.16875-.13281.30469-.30312.30469zm-.42032 1.025c-.06562 0-.10625-.02031-.16718-.05625-.975-.5875-2.10938-.6125-3.22969-.38281-.06094.01562-.14063.04062-.18594.04062-.15156 0-.24687-.12031-.24687-.24687 0-.16094.09531-.2375.2125-.2625 1.27968-.28282 2.5875-.25782 3.70312.40937.09531.06094.15156.11563.15156.25781 0 .14219-.11093.24063-.2375.24063z" fill="#1ed760"/></svg>