<svg width="12" height="12" viewBox="0 0 12 12" fill="none" xmlns="http://www.w3.org/2000/svg">
<rect width="12" height="12" rx="2" fill="url(#paint0_linear_210_201)"/>
<g clip-path="url(#clip0_210_201)">
<path d="M7.58001 4.97559H9.64643C9.84166 4.97559 9.99992 5.13385 9.99992 5.32907V7.21131C9.99992 7.92882 9.41826 8.51047 8.70075 8.51047H8.69461C7.9771 8.51057 7.39537 7.929 7.39526 7.21149C7.39526 7.21143 7.39526 7.21137 7.39526 7.2113V5.16033C7.39527 5.0583 7.47798 4.97559 7.58001 4.97559Z" fill="#E2E2E2"/>
<path d="M8.97686 4.60348C9.43924 4.60348 9.81407 4.22865 9.81407 3.76627C9.81407 3.30389 9.43924 2.92906 8.97686 2.92906C8.51448 2.92906 8.13965 3.30389 8.13965 3.76627C8.13965 4.22865 8.51448 4.60348 8.97686 4.60348Z" fill="#E2E2E2"/>
<path d="M6.37215 4.60348C7.04003 4.60348 7.58145 4.06206 7.58145 3.39418C7.58145 2.7263 7.04003 2.18488 6.37215 2.18488C5.70427 2.18488 5.16284 2.7263 5.16284 3.39418C5.16284 4.06206 5.70427 4.60348 6.37215 4.60348Z" fill="white"/>
<path d="M7.98451 4.97559H4.57353C4.38063 4.98036 4.22804 5.14045 4.23251 5.33336V7.48015C4.20558 8.63777 5.12143 9.59842 6.27903 9.62675C7.43662 9.59842 8.35247 8.63777 8.32554 7.48015V5.33336C8.33001 5.14045 8.17742 4.98036 7.98451 4.97559Z" fill="white"/>
<path opacity="0.1" d="M6.46508 4.97559V7.98396C6.46415 8.12191 6.38056 8.24585 6.25299 8.29838C6.21237 8.31556 6.16872 8.32441 6.12461 8.32442H4.39624C4.37206 8.26303 4.34973 8.20163 4.33112 8.13838C4.266 7.9249 4.23277 7.70297 4.23252 7.47977V5.3328C4.22805 5.1402 4.38039 4.98036 4.57298 4.97559H6.46508Z" fill="black"/>
<path opacity="0.2" d="M6.27903 4.97559V8.17C6.27903 8.21411 6.27017 8.25776 6.25299 8.29838C6.20046 8.42594 6.07652 8.50955 5.93857 8.51047H4.48368C4.45206 8.44907 4.42229 8.38768 4.39624 8.32442C4.37019 8.26117 4.34973 8.20163 4.33112 8.13838C4.266 7.9249 4.23277 7.70297 4.23252 7.47977V5.3328C4.22805 5.1402 4.38039 4.98036 4.57298 4.97559H6.27903Z" fill="black"/>
<path opacity="0.2" d="M6.27903 4.97559V7.79791C6.27761 7.98536 6.12601 8.13696 5.93857 8.13838H4.33112C4.266 7.9249 4.23277 7.70297 4.23252 7.47977V5.3328C4.22805 5.1402 4.38039 4.98036 4.57298 4.97559H6.27903Z" fill="black"/>
<path opacity="0.1" d="M6.46513 4.01373V4.59977C6.4335 4.60163 6.40373 4.60349 6.3721 4.60349C6.34048 4.60349 6.31071 4.60163 6.27908 4.59977C6.21628 4.5956 6.154 4.58564 6.09303 4.57001C5.71629 4.48079 5.40504 4.21657 5.25583 3.85931C5.23015 3.79931 5.21022 3.73702 5.19629 3.67326H6.12466C6.3124 3.67397 6.46441 3.82599 6.46513 4.01373Z" fill="black"/>
<path opacity="0.2" d="M6.27911 4.19976V4.59976C6.21632 4.59559 6.15403 4.58563 6.09307 4.57C5.71632 4.48078 5.40507 4.21656 5.25586 3.8593H5.93865C6.12638 3.86001 6.2784 4.01202 6.27911 4.19976Z" fill="black"/>
<path opacity="0.2" d="M6.27911 4.19976V4.59976C6.21632 4.59559 6.15403 4.58563 6.09307 4.57C5.71632 4.48078 5.40507 4.21656 5.25586 3.8593H5.93865C6.12638 3.86001 6.2784 4.01202 6.27911 4.19976Z" fill="black"/>
<path opacity="0.2" d="M6.09307 4.19976V4.57C5.71632 4.48078 5.40507 4.21656 5.25586 3.8593H5.7526C5.94034 3.86001 6.09235 4.01203 6.09307 4.19976Z" fill="black"/>
<path d="M2.34102 3.8593H5.752C5.94034 3.8593 6.09302 4.01198 6.09302 4.20032V7.6113C6.09302 7.79964 5.94034 7.95232 5.752 7.95232H2.34102C2.15268 7.95232 2 7.79964 2 7.6113V4.20032C2 4.01198 2.15268 3.8593 2.34102 3.8593Z" fill="white"/>
<path d="M4.9439 5.15753H4.26204V7.01428H3.82762V5.15753H3.14893V4.79735H4.9439V5.15753Z" fill="url(#paint1_linear_210_201)"/>
</g>
<defs>
<linearGradient id="paint0_linear_210_201" x1="2.08465" y1="-0.781239" x2="9.91537" y2="12.7813" gradientUnits="userSpaceOnUse">
<stop stop-color="#5A62C3"/>
<stop offset="0.5" stop-color="#4D55BD"/>
<stop offset="1" stop-color="#3940AB"/>
</linearGradient>
<linearGradient id="paint1_linear_210_201" x1="3.46075" y1="4.65302" x2="5.04005" y2="6.86769" gradientUnits="userSpaceOnUse">
<stop stop-color="#5A62C3"/>
<stop offset="0.5" stop-color="#4D55BD"/>
<stop offset="1" stop-color="#3940AB"/>
</linearGradient>
<clipPath id="clip0_210_201">
<rect width="8" height="7.44186" fill="white" transform="translate(2 2.18488)"/>
</clipPath>
</defs>
</svg>
