<svg fill="none" height="12" viewBox="0 0 12 12" width="12" xmlns="http://www.w3.org/2000/svg" xmlns:xlink="http://www.w3.org/1999/xlink"><linearGradient id="a"><stop offset="0" stop-color="#5a62c3"/><stop offset=".5" stop-color="#4d55bd"/><stop offset="1" stop-color="#3940ab"/></linearGradient><linearGradient id="b" gradientUnits="userSpaceOnUse" x1="2.08465" x2="9.91537" xlink:href="#a" y1="-.781239" y2="12.7813"/><linearGradient id="c" gradientUnits="userSpaceOnUse" x1="3.46087" x2="5.04017" xlink:href="#a" y1="4.65302" y2="6.86769"/><rect fill="url(#b)" height="12" rx="2.5" width="12"/><path d="m7.58013 4.97558h2.06642c.19523 0 .35345.15826.35345.35349v1.88223c0 .71751-.58161 1.29916-1.29912 1.29916h-.00615c-.7175.0001-1.29924-.58147-1.29934-1.29898 0-.00006 0-.00012 0-.00018v-2.05098c0-.10203.08271-.18474.18474-.18474z" fill="#e2e2e2"/><path d="m8.97674 4.60348c.46237 0 .83721-.37483.83721-.83721s-.37484-.83721-.83721-.83721c-.46238 0-.83721.37483-.83721.83721s.37483.83721.83721.83721z" fill="#e2e2e2"/><path d="m6.37215 4.60349c.66788 0 1.2093-.54142 1.2093-1.2093s-.54142-1.20931-1.2093-1.20931-1.20931.54143-1.20931 1.20931.54143 1.2093 1.20931 1.2093z" fill="#fff"/><path d="m7.98451 4.97558h-3.41098c-.1929.00477-.34549.16486-.34102.35777v2.14679c-.02693 1.15762.88892 2.11827 2.04652 2.1466 1.15759-.02833 2.07344-.98898 2.04651-2.1466v-2.14679c.00447-.19291-.14812-.353-.34103-.35777z" fill="#fff"/><g fill="#000"><path d="m6.46508 4.97558v3.00837c-.00093.13796-.08452.26189-.21209.31442-.04062.01718-.08427.02603-.12838.02605h-1.72837c-.02418-.0614-.04651-.1228-.06512-.18605-.06512-.21348-.09835-.43541-.0986-.6586v-2.14698c-.00447-.1926.14787-.35244.34046-.35721z" opacity=".1"/><path d="m6.27903 4.97558v3.19442c0 .0441-.00886.08775-.02604.12837-.05253.12757-.17647.21117-.31442.21209h-1.45489c-.03162-.06139-.06139-.12279-.08744-.18604-.02605-.06326-.04651-.12279-.06512-.18605-.06512-.21348-.09835-.43541-.0986-.6586v-2.14698c-.00447-.1926.14787-.35244.34046-.35721z" opacity=".2"/><path d="m6.27903 4.97558v2.82233c-.00142.18744-.15302.33904-.34046.34046h-1.60745c-.06512-.21348-.09835-.43541-.0986-.6586v-2.14698c-.00447-.1926.14787-.35244.34046-.35721z" opacity=".2"/><path d="m6.46513 4.01372v.58604c-.03163.00186-.0614.00373-.09303.00373-.03162 0-.06139-.00186-.09302-.00373-.0628-.00416-.12508-.01413-.18605-.02976-.37674-.08922-.68799-.35344-.8372-.7107-.02568-.05999-.04561-.12229-.05954-.18604h.92837c.18774.00071.33975.15272.34047.34046z" opacity=".1"/><path d="m6.27911 4.19977v.4c-.06279-.00417-.12508-.01413-.18604-.02977-.37675-.08922-.688-.35343-.83721-.71069h.68279c.18773.00071.33975.15272.34046.34046z" opacity=".2"/><path d="m6.27911 4.19977v.4c-.06279-.00417-.12508-.01413-.18604-.02977-.37675-.08922-.688-.35343-.83721-.71069h.68279c.18773.00071.33975.15272.34046.34046z" opacity=".2"/><path d="m6.09307 4.19976v.37024c-.37675-.08922-.688-.35344-.83721-.7107h.49674c.18774.00071.33975.15273.34047.34046z" opacity=".2"/></g><path d="m2.34102 3.8593h3.41098c.18834 0 .34102.15268.34102.34102v3.41098c0 .18834-.15268.34102-.34102.34102h-3.41098c-.18834 0-.34102-.15269-.34102-.34102v-3.41098c0-.18834.15268-.34102.34102-.34102z" fill="#fff"/><path d="m4.94402 5.15753h-.68186v1.85675h-.43441v-1.85675h-.6787v-.36018h1.79497z" fill="url(#c)"/></svg>