<svg width="12" height="12" viewBox="0 0 12 12" fill="none" xmlns="http://www.w3.org/2000/svg">
<rect width="12" height="12" rx="2" fill="url(#paint0_linear_212_515)"/>
<mask id="mask0_212_515" style="mask-type:luminance" maskUnits="userSpaceOnUse" x="2" y="3" width="8" height="6">
<path d="M7.43563 3.00007C7.15728 2.99755 6.88309 3.06771 6.64016 3.20363C6.3895 3.33008 6.17157 3.51292 6.00349 3.7378L5.19646 5.90334C5.18234 5.98424 5.16354 6.06426 5.14016 6.14299C5.12861 6.18775 5.11706 6.22239 5.10551 6.26715C5.03823 6.49126 4.9587 6.71151 4.8673 6.92692C4.798 7.05108 4.69694 7.19978 4.51504 7.16513L4.44574 7.13048C4.33198 7.04485 4.24202 6.93153 4.18443 6.80132C4.03037 6.51635 3.90836 6.21518 3.82062 5.90334C3.70721 5.5134 3.62751 5.11443 3.58241 4.71085C3.58171 4.52689 3.53187 4.34646 3.43804 4.18823C3.37627 4.10552 3.29875 4.03584 3.20994 3.98322C3.09323 3.91307 2.96056 3.87382 2.82447 3.86917C2.6787 3.86543 2.53416 3.89661 2.40291 3.96013C2.28137 4.02723 2.18127 4.12732 2.11417 4.24887C2.03726 4.3668 1.99753 4.50511 2.00012 4.64588C2.00244 4.69946 2.01018 4.75266 2.02322 4.80468C2.06797 5.25945 2.26143 6.66994 2.90965 7.73827C2.90965 7.73827 3.44382 8.77196 4.59155 8.74886C4.86744 8.7416 5.13861 8.67565 5.38703 8.55541C5.63711 8.43849 5.85546 8.26322 6.0237 8.04434L6.49001 7.01065L6.83072 5.91922L6.86393 5.74886C6.93108 5.46114 7.02236 5.17959 7.13679 4.90719C7.17304 4.79476 7.24006 4.69474 7.33024 4.61845L7.34179 4.6069C7.38204 4.5871 7.42725 4.57969 7.47171 4.5856C7.51617 4.59151 7.55788 4.61048 7.59155 4.64011C7.63415 4.6696 7.66925 4.70866 7.69405 4.75416C7.7287 4.79891 7.75036 4.84511 7.78501 4.88987C7.84014 4.98245 7.88839 5.07895 7.92938 5.17861C7.96437 5.2596 8.0064 5.33738 8.05498 5.41104C8.05804 5.41104 8.06098 5.41226 8.06315 5.41442C8.06531 5.41659 8.06652 5.41952 8.06652 5.42259C8.14428 5.50653 8.23677 5.57552 8.33939 5.62615C8.44033 5.6808 8.55379 5.70817 8.66855 5.70555C8.77353 5.7047 8.87758 5.68565 8.97606 5.64925C9.07453 5.61219 9.16372 5.55404 9.23736 5.47889C9.30419 5.39877 9.36137 5.31106 9.40772 5.21758C9.44232 5.11862 9.46132 5.01488 9.46403 4.91008C9.46413 4.79687 9.44103 4.68485 9.39617 4.58091C9.39617 4.58091 9.08866 3.78544 8.55449 3.38698C8.23528 3.13656 7.84135 3.00034 7.43563 3.00007Z" fill="white"/>
</mask>
<g mask="url(#mask0_212_515)">
<path d="M8.40899 0.403477L-0.0153809 3.80885L3.03939 11.3659L11.4638 7.96051L8.40899 0.403477Z" fill="#F3F3F3"/>
</g>
<mask id="mask1_212_515" style="mask-type:luminance" maskUnits="userSpaceOnUse" x="5" y="3" width="5" height="5">
<path d="M7.43572 3.00006C7.15677 3.00202 6.88151 3.06407 6.62869 3.18197C6.37741 3.30748 6.15929 3.49049 5.99202 3.71614L5.48096 5.09053L6.48144 7.01209L6.82215 5.92066L6.85535 5.7503C6.9225 5.46258 7.01378 5.18102 7.12821 4.90863C7.16446 4.7962 7.23148 4.69617 7.32167 4.61989L7.33322 4.60834C7.37346 4.58854 7.41867 4.58113 7.46313 4.58704C7.50759 4.59295 7.5493 4.61192 7.58298 4.64155C7.62557 4.67105 7.66068 4.7101 7.68548 4.75559C7.72013 4.80035 7.74178 4.84655 7.77643 4.8913C7.83156 4.98388 7.87982 5.08039 7.9208 5.18004C7.95864 5.26085 8.00357 5.33815 8.05506 5.41103C8.05813 5.41103 8.06107 5.41225 8.06323 5.41442C8.0654 5.41658 8.06661 5.41952 8.06661 5.42258C8.14437 5.50653 8.23685 5.57552 8.33947 5.62614C8.44042 5.68079 8.55387 5.70817 8.66863 5.70555C8.77362 5.7047 8.87766 5.68565 8.97614 5.64924C9.07462 5.61218 9.1638 5.55404 9.23745 5.47889C9.30428 5.39876 9.36146 5.31106 9.40781 5.21758C9.44241 5.11862 9.46141 5.01487 9.46411 4.91007C9.46421 4.79687 9.44112 4.68484 9.39626 4.58091C9.39626 4.58091 9.08875 3.78543 8.55458 3.38697C8.23536 3.13656 7.84144 3.00033 7.43572 3.00006Z" fill="white"/>
</mask>
<g mask="url(#mask1_212_515)">
<path d="M9.27922 2.26777L4.67114 3.20819L5.61676 7.84173L10.2248 6.90131L9.27922 2.26777Z" fill="#D9D9D9"/>
</g>
<mask id="mask2_212_515" style="mask-type:luminance" maskUnits="userSpaceOnUse" x="2" y="3" width="8" height="6">
<path d="M4.44575 3.00006C4.37747 3.00348 4.30949 3.0112 4.24218 3.02316C3.98587 3.07502 3.74281 3.17858 3.52786 3.32751C3.3129 3.47645 3.13055 3.66762 2.99194 3.88938C3.06817 3.90762 3.14086 3.93835 3.20706 3.98033C3.29587 4.03295 3.37339 4.10263 3.43516 4.18534C3.52899 4.34357 3.57883 4.524 3.57953 4.70795C3.62726 5.10274 3.70349 5.49356 3.80763 5.87735C3.9163 5.45586 4.09702 5.05633 4.3418 4.6964C4.37038 4.65353 4.40905 4.61834 4.45441 4.5939C4.4785 4.57963 4.50582 4.57168 4.53381 4.5708C4.5818 4.56989 4.62916 4.58185 4.67096 4.60545C4.68251 4.60545 4.68251 4.617 4.69406 4.617C4.73057 4.6519 4.76436 4.68955 4.79512 4.72961C4.85544 4.8403 4.90896 4.95456 4.95537 5.07176C5.04632 5.32152 5.12572 5.63914 5.12572 5.63914L5.35239 6.54867C5.43177 6.86293 5.53456 7.17082 5.65989 7.46974C6.01216 8.27677 6.54632 8.50343 6.54632 8.50343C6.81011 8.64073 7.10096 8.71812 7.3981 8.73009C7.68098 8.74343 7.96261 8.68481 8.21668 8.55973C8.4954 8.42042 8.74142 8.2236 8.93852 7.98225C9.05727 7.82025 9.16346 7.64939 9.25614 7.47119C9.46921 7.05151 9.63342 6.60877 9.74555 6.15165C9.82345 5.86681 9.8842 5.57755 9.92746 5.28543C9.95056 5.14106 9.97221 4.99669 9.98376 4.85232C10.0088 4.71685 10.0049 4.5776 9.97221 4.44376C9.9621 4.42066 9.96211 4.39756 9.95056 4.37446C9.88126 4.20619 9.75712 4.06628 9.59829 3.97745C9.48398 3.90083 9.34897 3.86103 9.21138 3.86339C9.14629 3.86469 9.08149 3.87242 9.01793 3.88649C9.16481 4.10095 9.29051 4.32916 9.39329 4.56792C9.43815 4.67185 9.46124 4.78387 9.46114 4.89708C9.45844 5.00188 9.43944 5.10562 9.40484 5.20459C9.35849 5.29806 9.30131 5.38577 9.23448 5.46589C9.16427 5.54513 9.074 5.60398 8.97317 5.63625C8.87478 5.67315 8.77074 5.69268 8.66567 5.694C8.52489 5.69659 8.38659 5.65686 8.26865 5.57995L8.18781 5.88601C8.12704 6.12124 8.04339 6.34995 7.93804 6.56888C7.88176 6.70315 7.81364 6.83215 7.73448 6.95434C7.68272 7.03857 7.60744 7.10582 7.51793 7.1478C7.48464 7.15731 7.45 7.16121 7.41543 7.15935C7.37854 7.15846 7.34278 7.14638 7.31292 7.1247C7.25298 7.07447 7.20386 7.01258 7.16855 6.94279C7.12263 6.86782 7.08117 6.79021 7.0444 6.71036C6.97654 6.54 6.86249 6.11989 6.86249 6.11989L6.75566 5.6709L6.6416 5.22769L6.5622 4.93173C6.46663 4.52537 6.29679 4.14018 6.06124 3.79554C5.83207 3.46918 5.50643 3.22281 5.13006 3.09101C4.98202 3.03759 4.82675 3.00692 4.66952 3.00006H4.44575Z" fill="white"/>
</mask>
<g mask="url(#mask2_212_515)">
<path d="M3.68409 0.909419L1.27856 8.17456L9.3112 10.8342L11.7167 3.56907L3.68409 0.909419Z" fill="white"/>
</g>
<defs>
<linearGradient id="paint0_linear_212_515" x1="1" y1="-6.33299e-08" x2="12" y2="9" gradientUnits="userSpaceOnUse">
<stop stop-color="#21DEFF"/>
<stop offset="0.505" stop-color="#3774FF"/>
<stop offset="1" stop-color="#44B044"/>
</linearGradient>
</defs>
</svg>
