<svg fill="none" height="12" viewBox="0 0 12 12" width="12" xmlns="http://www.w3.org/2000/svg" xmlns:xlink="http://www.w3.org/1999/xlink"><linearGradient id="a" gradientUnits="userSpaceOnUse" x1="1" x2="12" y1="-0" y2="9"><stop offset="0" stop-color="#21deff"/><stop offset=".505" stop-color="#3774ff"/><stop offset="1" stop-color="#44b044"/></linearGradient><rect fill="url(#a)" height="12" rx="2.5" width="12"/><path d="m3.82852 6.01925c.09086.30664.20443.61329.36344.89722.06814.12493.13628.24986.26121.32936.02272.01136.04543.02272.06815.03407.18171.03408.28393-.11357.35207-.2385.09086-.21579.17036-.43158.23851-.65872.01135-.04543.02271-.0795.03407-.12493.02271-.0795.04543-.159.05678-.2385l.80637-2.15789c.17036-.22714.38615-.40886.63601-.53379.2385-.13629.51108-.20443.79501-.20443.3975 0 .79501.13629 1.11301.38615.5338.3975.84044 1.19251.84044 1.19251.04543.10222.06815.21579.06815.32936 0 .10222-.02272.20443-.05679.30665-.04543.09086-.10222.18172-.17036.26122-.06814.06814-.159.13628-.26122.17036-.09086.03407-.20443.05678-.30664.05678-.11358 0-.22715-.02271-.32937-.0795-.10221-.04543-.19307-.12493-.27257-.20443 0 0 0-.01136-.01136-.01136-.04543-.06814-.09086-.14764-.12493-.22714-.04543-.10222-.09086-.19308-.14764-.28394-.03407-.04542-.05679-.09085-.09086-.13628-.02272-.04543-.05679-.0795-.10222-.11358-.0795-.05678-.17036-.0795-.24986-.03407l-.01135.01136c-.09086.05679-.14765.18172-.19308.28393-.12493.27258-.19307.54515-.27257.84044-.01136.05679-.02272.11357-.03407.17036l-.34072 1.0903-.46565 1.03351c-.17036.21579-.38615.39751-.63601.51108-.24986.12493-.52243.18172-.79501.19307-1.14709.02272-1.68088-1.01079-1.68088-1.01079-.64736-1.06759-.84044-2.47589-.88587-2.93018-.02271-.10222-.02271-.15901-.02271-.15901 0-.13628.03407-.28393.11357-.3975.06815-.12493.17036-.22715.29529-.29529.13629-.06814.27258-.09086.42022-.09086.13629 0 .26122.04543.38615.11357.09086.05679.17036.12493.22715.20444.10221.14764.13628.34071.14764.52243.04543.40886.12493.80637.2385 1.19252z" fill="#e7e7e7"/><path d="m9.21182 3.98629c-.06814 0-.13628.01136-.19307.02272.14764.21579.27257.44293.37479.68144.04543.10221.06814.21578.06814.32936 0 .10221-.02271.20443-.05678.30664-.04543.09086-.10222.18172-.17036.26122-.06815.0795-.159.13629-.26122.17036-.09086.03407-.20443.05679-.30665.05679-.13628 0-.28393-.03408-.3975-.11358l-.0795.30665c-.14765.49972-.24986.68144-.24986.68144-.05679.13628-.12493.26121-.20443.38614-.05679.07951-.12493.15901-.21579.19308-.03407.01136-.06814.01136-.10222.01136-.03407 0-.06814-.01136-.10221-.03408-.05679-.04543-.11358-.11357-.14765-.18171-.04543-.0795-.0795-.159-.11357-.23851-.06814-.17035-.18172-.59057-.18172-.59057l-.11357-.44294-.11357-.44293-.0795-.29529c-.20443-.76094-.49972-1.13573-.49972-1.13573-.22715-.32936-.55651-.56786-.9313-.70415-.43158-.159-.88587-.06815-.88587-.06815-.71551.13629-1.0903.62466-1.2493.86316.0795.02271.14764.04543.21579.09086.09086.05678.17036.12493.22714.20443.10222.14764.13629.34072.14765.52243.04543.39751.12493.78365.22714 1.1698.23851-.80636.5338-1.18115.5338-1.18115.03407-.04543.06814-.07951.11357-.10222.02271-.01136.04543-.02271.0795-.02271.04543 0 .10222.01135.13629.03407.01135 0 .01135.01135.02271.01135.03407.03408.06815.06815.10222.11358.05678.11357.11357.21579.159.34072.09086.24986.17036.56786.17036.56786l.22714.90858c.17036.62465.30665.91994.30665.91994.35208.80637.88587 1.03352.88587 1.03352.26122.13628.55651.21578.8518.22714.28393.01136.56786-.04543.81772-.17036.27257-.13629.52244-.34072.71551-.57922.12493-.14764.318-.51108.318-.51108.21579-.42022.37479-.86315.48837-1.31744.0795-.28393.13628-.56787.18171-.86316.02272-.14764.04543-.28393.05679-.43157.02268-.13629.02268-.27258-.01136-.40887-.01136-.02271-.01136-.04542-.02271-.06814-.06815-.17036-.19308-.30665-.35208-.3975-.11357-.0795-.24986-.11358-.38615-.11358z" fill="#fff"/></svg>