<svg fill="none" height="12" viewBox="0 0 12 12" width="12" xmlns="http://www.w3.org/2000/svg"><rect fill="#2d8cff" height="12" rx="2.5" width="12"/><path d="m9.56364 8.10442c.16623.04155.31168-.04156.3948-.16624.04156-.06234.04156-.16623.04156-.3948v-3.13767c0-.22857 0-.31168-.04156-.3948-.06234-.16623-.22857-.22857-.3948-.16623-.43637.2909-1.39221 1.14285-1.41299 1.4961-.01662.06234-.01662.16623-.01662.31169v.78961c0 .16623 0 .22857.01662.31169.02078.16623.08312.31168.16623.3948.24935.18701 1.08052.93507 1.26754.93507zm-7.56364-3.53247c0-.31169 0-.47792.06234-.56104.04156-.08312.16623-.16623.22857-.22857.08312-.06234.22857-.06234.56104-.06234h2.68052c.78961 0 1.18441 0 1.4961.16623.22857.16624.47792.31169.62338.62338.16623.31169.16623.70649.16623 1.4961v1.41299c0 .31169 0 .47792-.06234.56104-.04155.08312-.16623.16623-.22857.22857-.08311.06234-.22857.06234-.56104.06234h-2.68052c-.78961 0-1.18441 0-1.4961-.16623-.22857-.16624-.47792-.31169-.62338-.62338-.16623-.31169-.16623-.70649-.16623-1.4961z" fill="#fff"/></svg>