<svg width="12" height="12" viewBox="0 0 12 12" fill="none" xmlns="http://www.w3.org/2000/svg">
<rect width="12" height="12" rx="2" fill="#2D8CFF"/>
<path d="M9.56364 8.10442C9.72987 8.14598 9.87532 8.06286 9.95844 7.93818C10 7.87585 10 7.77195 10 7.54338V4.40572C10 4.17714 10 4.09403 9.95844 4.01091C9.8961 3.84468 9.72987 3.78234 9.56364 3.84468C9.12727 4.13559 8.17143 4.98753 8.15065 5.34078C8.13403 5.40312 8.13403 5.50701 8.13403 5.65247V6.44208C8.13403 6.60831 8.13403 6.67065 8.15065 6.75377C8.17143 6.92 8.23377 7.06546 8.31688 7.14857C8.56623 7.33559 9.3974 8.08364 9.58442 8.08364L9.56364 8.10442ZM2 4.57195C2 4.26026 2 4.09403 2.06234 4.01091C2.1039 3.92779 2.22857 3.84468 2.29091 3.78234C2.37403 3.72 2.51948 3.72 2.85195 3.72H5.53247C6.32208 3.72 6.71688 3.72 7.02857 3.88623C7.25714 4.05247 7.50649 4.19792 7.65195 4.50961C7.81818 4.8213 7.81818 5.21611 7.81818 6.00572V7.4187C7.81818 7.73039 7.81818 7.89662 7.75584 7.97974C7.71429 8.06286 7.58961 8.14598 7.52727 8.20831C7.44416 8.27065 7.2987 8.27065 6.96623 8.27065H4.28571C3.4961 8.27065 3.1013 8.27065 2.78961 8.10442C2.56104 7.93818 2.31169 7.79273 2.16623 7.48104C2 7.16935 2 6.77455 2 5.98494V4.57195Z" fill="white"/>
</svg>
